<?xml version="1.0" encoding="UTF-8"?>
<svg id="_レイヤー_14" data-name="レイヤー 14" xmlns="http://www.w3.org/2000/svg" viewBox="0 0 488.98 590.66">
  <defs>
    <style>
      .cls-1 {
        fill: #fff;
      }

      .cls-2 {
        fill: none;
        stroke: #035dc4;
        stroke-linecap: round;
        stroke-linejoin: round;
        stroke-width: 5px;
      }

      .cls-3 {
        fill: #035dc4;
      }
    </style>
  </defs>
  <path class="cls-1" d="M488.95,580.77c-9.55-62.38-33.01-123.16-67.85-175.77-.76-1.15-2.31-1.47-3.46-.7-.03.02-.05.05-.08.07.33-.97.64-1.94.92-2.93,2.74-9.58,2.79-20.01.15-29.36-1.15-4.09-2.77-7.8-4.81-11.1.92-.94,1.83-1.88,2.74-2.82.35-.14.68-.35.95-.64,4.04-4.44,5.66-11,4.34-17.54-1.32-6.54-5.36-11.95-10.81-14.48-3.42-1.59-7.35-2.01-11.25-1.32.87-2.83.84-5.97-.13-9.09-1.42-4.56-4.7-8.52-8.79-10.59-3.29-1.67-7.12-2.33-11.02-2.03.61-2.97.41-6.17-.64-9.36-1.9-5.76-6.22-10.59-11.55-12.91-3.2-1.4-6.76-2.04-10.45-1.98,1.55-74.27-22.32-148.91-66.31-208.76,1.18-1.35,2.29-2.76,3.32-4.21,11.3-15.99,11.69-37.81.93-51.89-5.9-7.72-15.63-12.68-26.03-13.28-5.95-.34-11.64.84-16.48,3.31-3,.17-5.98.62-8.71,1.02-6.98,1.03-13.75,2.92-20.27,5.51-32.21-11.29-66.07-8.44-90.77,7.68-27.73,18.11-41.03,54.07-30.71,82.47-20.43,6.92-37.59,26.21-42.47,49.51-5.11,24.39,1.94,52.3,19.34,76.57,15.16,21.15,35.65,37.21,55.88,51.32.67.52,1.35,1.04,2.04,1.54,6.84,4.99,14.45,8.8,22.01,12.56,2.56,1.27,5.14,2.51,7.72,3.74,4.71,17.73,11.41,34.87,19.97,51.07.6,1.3,1.21,2.6,1.84,3.89-7.89-2.78-15.74-5.98-23.53-9.62-.82-.38-1.79-.29-2.53.24-67.47,48.85-121.67,114.18-157.27,189.4-3.26,4.29-5.2,9.63-5.2,15.41,0,14.07,11.51,25.58,25.58,25.58h390.26c.22,5.63.35,11.26.35,16.91,0,1.38,1.12,2.5,2.5,2.5h0c1.38,0,2.5-1.12,2.5-2.5,0-5.65-.13-11.29-.35-16.91h32.15c12.38,0,22.77-8.91,25.09-20.63,2.35,10.24,4.33,20.55,5.92,30.91.19,1.24,1.25,2.12,2.47,2.12.13,0,.25,0,.38-.03,1.36-.21,2.3-1.48,2.09-2.85Z"/>
  <g>
    <path class="cls-2" d="M288.9,206.78c4.13,7.94,12.83,13.29,21.78,13.39,8.95.1,17.76-5.06,22.06-12.91"/>
    <path class="cls-2" d="M301.8,317.56c-4.14-12.55-8.28-25.1-12.41-37.66-.71-2.16-1.43-4.4-1.21-6.66.72-7.2,10.25-9.99,17.23-8.11,10.89,2.93,19.34,13.28,20.03,24.53"/>
    <path class="cls-2" d="M320.19,307.27c5.62-7.62,11.39-15.38,19.21-20.71,7.82-5.33,18.21-7.87,26.89-4.09,8.68,3.78,14,15.18,9.28,23.38"/>
    <path class="cls-2" d="M354.51,326.09c3.3-6.64,7.6-13.03,13.77-17.16,6.17-4.12,14.49-5.59,21.1-2.23,6.61,3.36,10.36,12.23,6.82,18.75"/>
    <path class="cls-2" d="M384.53,341.54c1.45-11.01,15.03-18.47,25.1-13.8,10.07,4.67,13.14,19.86,5.67,28.07"/>
    <path class="cls-2" d="M400.08,351.12c16.1,9.47,20.75,31.67,15.62,49.63-5.13,17.95-17.76,32.65-30.04,46.71"/>
    <path class="cls-2" d="M298.26,323.7c3.02,30.94,10.25,61.46,21.44,90.45"/>
    <path class="cls-2" d="M304.69,398.35c14.07,32.7,51.96,53.26,87.05,47.25"/>
    <path class="cls-2" d="M302.53,362.27c-45.18,8.79-93.23,2.01-138.97-19.38-69.54,50.35-125.55,119.21-160.68,197.55"/>
    <path class="cls-2" d="M418.64,406.37c34.74,52.48,57.93,112.56,67.46,174.77"/>
    <path class="cls-2" d="M393.42,444.5c16.42,46,24.88,94.82,24.9,143.66"/>
    <path class="cls-2" d="M304.19,400.93c-33.04,38.1-62.55,79.27-88.01,122.81"/>
    <g>
      <path class="cls-2" d="M273.65,52.15c54.01,63.16,83.36,146.87,80.62,229.92"/>
      <path class="cls-2" d="M187.19,217.07c-9.7-10.12-28.37-7.45-36.8,3.75-8.43,11.2-7.12,27.84.89,39.34,8.02,11.5,21.52,18.27,35.3,20.87"/>
      <path class="cls-2" d="M190.94,252.54c-4.14-11.39-19.21-17.22-29.94-11.57"/>
      <path class="cls-2" d="M164.37,275.65c4.18,20.8,11.9,40.89,22.74,59.13"/>
      <path class="cls-2" d="M246.87,10.39c12.12-12.57,35.32-9.4,45.93,4.47,10.61,13.87,9.09,34.67-.99,48.93-10.08,14.26-27.17,22.41-44.46,24.86-4.43.63-9.12.89-13.24-.86s-7.46-6.06-6.75-10.48c.79-4.9,6.39-7.99,11.3-7.24,4.91.75,8.93,4.45,11.51,8.69,7.92,13.07,3.71,30.73-5.9,42.61-9.61,11.88-23.55,19.29-37.09,26.38"/>
      <path class="cls-2" d="M223.34,12.55c-29.18-10.47-63.49-9.83-89.45,7.12-25.96,16.95-40.58,51.94-29.25,80.79,2.03,5.18,5.54,10.61,11.04,11.5s11.14-6.48,7.13-10.33c-1.82-1.74-4.6-1.9-7.12-1.77-26.37,1.39-48.48,24.35-53.9,50.2-5.42,25.85,3.54,53.14,18.93,74.6,15.39,21.46,36.68,37.92,58.43,52.91"/>
      <ellipse class="cls-3" cx="301.92" cy="156.09" rx="7.37" ry="9.8" transform="translate(-37.68 169.96) rotate(-29.68)"/>
    </g>
  </g>
</svg>