<?xml version="1.0" encoding="UTF-8"?>
<svg id="_レイヤー_14" data-name="レイヤー 14" xmlns="http://www.w3.org/2000/svg" viewBox="0 0 418.81 578.51">
  <defs>
    <style>
      .cls-1 {
        fill: #fff;
      }

      .cls-2 {
        fill: none;
        stroke: #035dc4;
        stroke-linecap: round;
        stroke-linejoin: round;
        stroke-width: 4px;
      }

      .cls-3 {
        fill: #035dc4;
      }

      .cls-4 {
        fill: #8ed7f2;
      }
    </style>
  </defs>
  <g>
    <g>
      <path class="cls-4" d="M43.98,567.38h258.44c-10.94-6.07-18.29-17.78-18.14-31.17.21-18.24,14.27-33.07,32.06-34.64l-261.73-3.03c-19.43-.22-35.36,15.34-35.58,34.77-.19,16.02,10.37,29.65,24.96,34.07Z"/>
      <path class="cls-2" d="M381.32,569.9c-10.02-7.58-16.02-19.67-15.79-31.79.23-12.12,6.7-24,17.01-31.22"/>
      <path class="cls-2" d="M386.58,570.87c-113.43-4.16-227.02-4.78-340.5-1.62"/>
      <path class="cls-2" d="M388.47,505.65c-33.15-1.21-66.32-2.13-99.5-2.73"/>
      <path class="cls-2" d="M375.95,517.86c-20.95-1.35-41.91-2.39-62.87-3.13"/>
      <path class="cls-2" d="M369.8,536.29c-20.95-1.35-41.91-2.39-62.87-3.13"/>
      <path class="cls-2" d="M373.58,556.62c-20.95-1.35-41.91-2.39-62.87-3.13"/>
    </g>
    <g>
      <path class="cls-4" d="M346.13,494.89H87.7c10.94-6.73,18.29-19.73,18.14-34.58-.21-20.24-14.27-36.69-32.06-38.43l261.73-3.36c19.43-.25,35.36,17.02,35.58,38.58.19,17.77-10.37,32.89-24.96,37.8Z"/>
      <path class="cls-2" d="M8.79,497.68c10.02-8.41,16.02-21.82,15.79-35.27s-6.7-26.62-17.01-34.64"/>
      <path class="cls-2" d="M3.53,498.76c113.43-4.61,227.02-5.31,340.5-1.8"/>
      <path class="cls-2" d="M1.64,426.4c33.15-1.35,66.32-2.36,99.5-3.03"/>
      <path class="cls-2" d="M14.16,439.95c20.95-1.49,41.91-2.66,62.87-3.47"/>
      <path class="cls-2" d="M20.31,460.4c20.95-1.49,41.91-2.66,62.87-3.47"/>
      <path class="cls-2" d="M16.53,482.95c20.95-1.49,41.91-2.66,62.87-3.47"/>
    </g>
    <g>
      <path class="cls-4" d="M380.02,417.08H121.58c10.94-6.07,18.29-17.78,18.14-31.17-.21-18.24-14.27-33.07-32.06-34.64l261.73-3.03c19.43-.22,35.36,15.34,35.58,34.77.19,16.02-10.37,29.65-24.96,34.07Z"/>
      <path class="cls-2" d="M42.67,419.6c10.02-7.58,16.02-19.67,15.79-31.79s-6.7-24-17.01-31.22"/>
      <path class="cls-2" d="M37.41,420.57c113.43-4.16,227.02-4.78,340.5-1.62"/>
      <path class="cls-2" d="M35.52,355.35c33.15-1.21,66.32-2.13,99.5-2.73"/>
      <path class="cls-2" d="M48.05,367.56c20.95-1.35,41.91-2.39,62.87-3.13"/>
      <path class="cls-2" d="M54.19,385.99c20.95-1.35,41.91-2.39,62.87-3.13"/>
      <path class="cls-2" d="M50.41,406.32c20.95-1.35,41.91-2.39,62.87-3.13"/>
    </g>
  </g>
  <g>
    <path class="cls-1" d="M400.11,154.19c-.17-.87-.89-1.49-1.72-1.6-.18-.18-.4-.34-.65-.44-.98-.41-2.11.02-2.57.97-3.56.7-7.12,1.43-10.67,2.17l-1.57-10.59-1.26-14.46c-.07-.84-.66-1.54-1.48-1.76-.81-.22-1.68.1-2.16.79-5.69,8.18-13.46,13.96-21.46,18.06l-2.44-1.67c.07-.53-.07-1.09-.44-1.53-27.44-32.88-66.59-53.18-107.41-55.71-.26-.02-.51.02-.74.1l-1.47-9.86c-.03-.19-.09-.37-.17-.54.02-.02.04-.03.05-.05,2.08-2.4,4.44-5.13,5.77-8.45,1.04-2.59,1.26-5.24.73-7.6.13-.2.22-.43.27-.68,1.39-7.22,2.97-15.41,1.32-23.34-1.52-7.32-6.73-15.36-15.03-17.33-7.97-12.16-22.31-19.03-35.95-17.14-12.45,1.72-23.64,10.63-28.45,22.21-5.11,6.06-7.82,12.71-7.35,18.62-2.76,5.42.65,12.05,5.63,14.89,1.04.59,2.11,1.05,3.21,1.42-1.61,13.16-.09,26.62,4.25,39.11-17.44,4.45-33.82,14.06-46.23,27.09-4.4-1.14-8.79-2.19-13.14-3.19-2.28-.53-4.57-1.04-6.86-1.56-18.35-4.16-37.33-8.47-54.27-16.89-.67-.34-1.48-.27-2.08.19-.6.45-.91,1.2-.78,1.94l6.91,40.43c-13.5-4.06-24.48-10.5-32.22-19-.57-.63-1.49-.83-2.27-.49-.78.34-1.27,1.14-1.2,1.99l1.05,13.77c-1.63-1.16-3.23-2.37-4.76-3.67-.84-.71-2.1-.61-2.82.23-.71.84-.61,2.11.23,2.82,2.45,2.07,5.03,3.97,7.73,5.71l.64,8.37-8.79-2.53c-.73-.21-1.52.01-2.03.58-.51.56-.66,1.37-.38,2.08l3.82,9.74c-1.08.37-2.12.89-3.07,1.58-4.27,3.08-6.53,8.83-5.74,14.64.81,5.99,4.4,10.68,7.26,13.56,3.54,3.57,7.74,6.27,11.79,8.88.11.07.23.11.34.16.03.19.07.37.15.55,12.05,26.5,24.51,53.9,37.88,80.8.3.61.9,1.03,1.58,1.1.3.03.61.07.91.1-8.53,11.29-10.94,27.99-6.23,44.08.39,1.32.82,2.62,1.28,3.9h-.61s1.66,2.79,1.66,2.79c1.44,3.56,3.13,6.98,4.99,10.28h1.12l4.3,7.23,35.11,41.7,56.51,44.99-3.29,32.92,2.05-.22c.54,4.46,2.26,7.7,5.09,8.74,5.94,2.19,14.49-6.19,19.09-18.7.41-1.1.76-2.2,1.08-3.29l11.09-17.81,4.39-16.46-9.88-17.56-36.28-61.54h94.48l-1.53,28.01-.24.11-8.71,82.95-1.66,19.62,10.57,12.88,18.19,12.13c5.09,9.57,11.73,15.52,15.9,13.75,2.63-1.12,3.72-5.1,3.33-10.47l1.59-.52c-1.45-9.27-6.45-18.53-7.8-28.06-.07-.53-.12-1.04-.17-1.55l-.53-.92.41-.81c-.41-9.33,3.37-16.64,10.91-21.47l20.64-40.61,14.29-51.3,1.49-13.73h5.37c1.63-20.58-1.15-40-8.36-56.8,2.94-.77,5.87-1.56,8.79-2.37.36-.1.67-.3.91-.56,1.08-.25,2.08-.67,3-1.24.22.47.62.85,1.15,1.04.22.07.44.11.65.11.83,0,1.6-.52,1.89-1.35l27.4-79.2c.21-.61.1-1.26-.23-1.76l.42-1.04c.24.1.49.2.73.29-.42.45-.63,1.08-.51,1.72.18.96,1.02,1.64,1.96,1.64.12,0,.24-.01.37-.03,11.94-2.22,20.83-14.29,19.4-26.35-.34-2.88-1.4-6.94-4.49-9.94-.56-.55-1.17-1.02-1.82-1.44l6.7-15.88c.17-.03.34-.07.51-.1,1.08-.21,1.79-1.26,1.58-2.34ZM246.78,93.27c-.11.44-.23.88-.34,1.31l-.32-2.17c.35.02.7.06,1.06.08-.18.22-.32.48-.39.78ZM349.31,272.8v-1.43l3.31-8.12-3.31,9.56Z"/>
    <g>
      <path class="cls-2" d="M165.52,45.4c-2.3,4.32.54,9.94,4.79,12.36s9.4,2.48,14.29,2.41c6.29-.09,12.81-.35,18.45-3.13s10.19-8.79,9.26-15.02c-2.43-.83-5.2,1.33-5.46,3.89s1.53,5.02,3.86,6.1,5.05.99,7.55.37c5.04-1.24,9.52-4.6,12.13-9.09"/>
      <path class="cls-2" d="M240.85,77.02c2.1-2.42,4.24-4.91,5.43-7.89s1.28-6.59-.58-9.21-5.99-3.61-8.41-1.51c-1.91,1.65-2.22,4.45-2.94,6.19.81-4.81.26-9.85-1.57-14.38"/>
      <path class="cls-2" d="M237.72,71.99c-.32-2.67,1.03-5.47,3.32-6.89"/>
      <path class="cls-2" d="M240.5,79.21c.84,5.65,1.68,11.29,2.53,16.94"/>
      <path class="cls-2" d="M174.62,60.19c-2.84,21.18,2.72,43.38,15.21,60.72"/>
      <path class="cls-2" d="M181.96,112.9c-.49,3.73.91,7.56,3.11,10.23s5.09,4.3,8.03,5.49c10.78,4.37,23,3.15,33.06-3.29,10.06-6.44,17.82-18.02,20.99-31.33"/>
      <path class="cls-2" d="M171.65,30.22c3.58-12.65,15.09-22.66,28.11-24.46,13.02-1.8,26.81,4.72,34.44,16.95,7.46,1.35,12.76,8.53,14.3,15.96s.11,15.11-1.33,22.55"/>
      <path class="cls-2" d="M131.71,128.79c12.35-13.1,28.5-22.56,45.96-26.94"/>
      <path class="cls-2" d="M244.57,90.67c40.1,2.49,79.03,22.69,106,55"/>
      <path class="cls-2" d="M30.65,204.61c-4.02-2.59-8.08-5.22-11.46-8.61-3.38-3.4-6.06-7.68-6.7-12.42s1.05-9.95,4.93-12.75,9.95-2.5,12.98,1.22"/>
      <path class="cls-2" d="M20.89,182.14c1.27-2.78,2.66-5.7,5.21-7.38s6.63-1.41,8,1.32c1.12,2.23,0,4.93-1.44,6.96s-3.29,3.93-3.79,6.37c.66-2.18,1.37-4.43,2.87-6.14s4.03-2.75,6.12-1.82c3.11,1.38,3.23,5.74,2.42,9.04-1.34,5.44-3.91,10.57-7.46,14.9"/>
      <path class="cls-2" d="M377.51,205.99c-2.18-.73-4.41-1.48-6.24-2.88s-3.2-3.6-3.01-5.89c.19-2.27,2.05-4.29,4.29-4.67s4.66.91,5.59,2.98"/>
      <path class="cls-2" d="M373.05,191.79c-1.96-2.98-.81-7.54,2.33-9.24s7.58-.17,9.01,3.11"/>
      <path class="cls-2" d="M377.75,181.53c-1.42-2.92.43-6.76,3.44-8s6.64-.15,8.97,2.11,3.51,5.51,3.89,8.74c1.29,10.93-6.96,22.14-17.78,24.15"/>
      <path class="cls-2" d="M396.56,154.83c-58.77,11.33-116.35,28.83-171.5,52.1-2.12,7.71-9.65,13.54-17.66,13.81s-15.91-5.05-20.04-11.74c2.94,31.86,5.88,63.71,8.81,95.57"/>
      <path class="cls-2" d="M225.77,215.21c-5.74,30.08-10.14,60.42-13.17,90.9"/>
      <path class="cls-2" d="M194.92,306.3c4.27,4.2,11.05,5.62,18.25,3.67,42.31-2.58,84.34-9.64,125.17-21.02"/>
      <path class="cls-2" d="M372,209.03l-27.4,79.2"/>
      <path class="cls-2" d="M395.38,154.26c-2.83,6.71-5.66,13.41-8.49,20.12"/>
      <path class="cls-2" d="M21.29,167.15c-1.31-3.34-2.61-6.67-3.92-10.01,55.33,15.91,110.66,31.82,165.99,47.73"/>
      <path class="cls-2" d="M31.88,206.17c12.25,26.94,24.49,53.87,37.85,80.74,41.01,4.3,81.76,11.18,121.91,20.57"/>
      <path class="cls-2" d="M28.83,159.29c-.73-9.64-1.47-19.28-2.2-28.92,12.28,13.48,30.44,20.22,48.46,23s36.37,2.09,54.57,3.26c18.19,1.17,36.82,4.42,52.23,14.17,15.4,9.75,26.98,27.19,25.69,44.18,1.56-16.9,13.83-31.42,28.68-39.62,14.86-8.2,32.06-11.01,48.96-12.56s34.01-2,50.5-6.03c16.49-4.03,32.68-12.15,42.37-26.09l1.26,14.46"/>
      <path class="cls-2" d="M19.64,142.15c13.95,11.81,32.42,18.12,50.67,17.33"/>
      <path class="cls-2" d="M62.78,150.49c-2.46-14.41-4.92-28.83-7.39-43.24,19.24,9.57,40.62,13.79,61.57,18.62,20.95,4.83,42.19,10.57,59.97,22.65,17.78,12.08,31.74,31.72,31.71,53.21"/>
      <path class="cls-2" d="M73,288.95c-9.78,11.78-11.17,28.88-6.87,43.58,4.3,14.69,13.53,27.42,23.36,39.15,22.68,27.08,49.45,50.72,79.12,69.88"/>
      <path class="cls-2" d="M136.58,307.2c25.41,37.14,48.68,75.74,69.64,115.55"/>
      <path class="cls-2" d="M169.62,443.74c7.51,1.72,15.65.5,22.32-3.35s11.81-10.28,14.08-17.64"/>
      <path class="cls-2" d="M169.09,441.39c-1.22,11.1-1.91,22.25-2.08,33.41-.05,3.19.15,6.83,2.61,8.86,2.04,1.68,5.09,1.64,7.49.56s4.31-3.03,6.07-4.99c10.16-11.26,18.12-24.5,23.3-38.76,2.11-5.8,3.6-12.8-.12-17.73"/>
      <path class="cls-2" d="M259.93,337.1c-3.3,43.85-6.59,87.7-9.89,131.55"/>
      <path class="cls-2" d="M327.18,291.62c13.56,29.36,11.78,63.96,1.98,94.78-9.8,30.82-27,58.66-44.04,86.15"/>
      <path class="cls-2" d="M247,468.02c9.87,10.22,26.44,13.23,39.28,7.13"/>
      <path class="cls-2" d="M249.09,468.89c-.91,4.5-1.79,9.32-.03,13.56,1.35,3.28,4.1,5.74,6.76,8.09,9.16,8.08,18.32,16.15,27.48,24.23,1.54,1.35,3.12,2.74,5.04,3.44s4.29.59,5.77-.83c2.18-2.09,1.48-5.67.62-8.57-3.31-11.12-6.61-22.24-9.92-33.36"/>
      <circle class="cls-3" cx="191.64" cy="84.23" r="3.16"/>
      <circle class="cls-3" cx="206.15" cy="84.23" r="3.16"/>
    </g>
  </g>
</svg>