<?xml version="1.0" encoding="UTF-8"?>
<svg id="_レイヤー_15" data-name="レイヤー 15" xmlns="http://www.w3.org/2000/svg" viewBox="0 0 587.33 525.48">
  <defs>
    <style>
      .cls-1 {
        fill: #fff;
      }

      .cls-2 {
        fill: none;
        stroke: #035dc4;
        stroke-linecap: round;
        stroke-linejoin: round;
        stroke-width: 4px;
      }

      .cls-3 {
        fill: #035dc4;
      }

      .cls-4 {
        fill: #8ed7f2;
      }
    </style>
  </defs>
  <path class="cls-1" d="M582.61,505.84c-4.3-26.3-10.79-53.3-19.29-80.23-16.31-51.68-38.64-91.81-68.28-122.69-31.64-32.95-70.69-54.36-110.23-60.49,1.32-4.61.09-9.44-3.45-13.1-3.73-3.84-9.1-5.35-14.02-4.13l-1.64-13.99c-.1-.83-.69-1.48-1.45-1.69-.01-.02-.02-.04-.03-.06-.58-.94-1.81-1.23-2.75-.65-1.09.68-2.2,1.33-3.31,1.97-1.15-42.43-7.42-84.68-18.65-125.69.94-.14,1.88-.26,2.82-.42,1.09-.18,1.82-1.22,1.64-2.31-.12-.71-.61-1.27-1.23-1.52.03-.33.03-.67-.01-1.04-.82-7.65-2.61-14.93-5.42-21.96.12-.37.13-.77.01-1.17-6.97-23.83-29.11-42.01-55.09-45.24-25.03-3.11-51.1,8.03-66.42,28.39-14.22,18.89-18.48,44.8-11.43,67.41.07.69.25,1.39.54,2.06.19.44.4.87.6,1.3.22.6.44,1.2.68,1.79.13.33.36.6.62.81,1.25,2.33,2.65,4.61,4.09,6.85-.14,3.71.61,7.49,2.38,10.9,4.29,8.28,13.96,13.77,24.02,13.85-.14.36-.27.73-.41,1.09-.3.79-.29,1.65-.07,2.48-2.69,20.27-2.41,40.7.81,60.86-4.02,2.29-7.74,5.32-11.29,8.1-5.18,4.06-10.64,8.22-15.08,13.19-8.22,2.62-15.6,7.04-22.76,11.34l-24.06,14.44s-.06.04-.09.06c-44.09,29.92-80.31,67.75-107.65,112.43-26.31,42.99-43.78,91.24-51.95,143.42-.17,1.09.58,2.11,1.67,2.29.1.02.21.02.31.02.97,0,1.82-.7,1.97-1.69,2.74-17.53,6.57-34.6,11.42-51.19-.01.36-.03.72-.03,1.09h0c0,19.43,15.9,35.33,35.33,35.33h477.94c19.43,0,35.33-15.9,35.33-35.33h0c0-1.92-.16-3.8-.46-5.63,4.3,16.6,7.8,33.12,10.46,49.37.16.98,1.01,1.68,1.97,1.68.11,0,.22,0,.33-.03,1.09-.18,1.83-1.21,1.65-2.3Z"/>
  <g>
    <path class="cls-2" d="M246.12,108.39c-4.34-8.48-17.03-11.09-25.04-5.74-8.02,5.35-10.42,16.92-6.03,25.38,4.39,8.46,14.53,13.38,24.21,12.73"/>
    <path class="cls-2" d="M245.08,126.95c-5.08-4.86-12.07-7.78-19.18-8.02"/>
    <path class="cls-2" d="M330.01,222.97c11.4-3.37,22.39-8.2,32.51-14.45"/>
    <path class="cls-2" d="M236.44,218.43c11.71,4.88,24.12,8.02,36.71,9.46"/>
    <path class="cls-2" d="M238.96,145.3c-3.2,23-2.52,46.51,1.99,69.3"/>
    <path class="cls-2" d="M242.79,96.79c2.13-6.26,4.26-12.52,6.39-18.78"/>
    <path class="cls-2" d="M336.16,78.5c12.26,43.06,19.01,87.6,20.06,132.28"/>
    <path class="cls-2" d="M208.04,109.66c-9.19-23.03-5.5-50.88,9.35-70.61,14.85-19.73,40.32-30.62,64.58-27.61,24.25,3.01,46.4,19.82,53.42,43.82"/>
    <path class="cls-2" d="M259.37,56.66c2.06,8.11,10.76,13.53,19.35,17.09,19.53,8.09,42.05,10.57,63.27,6.97"/>
    <ellipse class="cls-3" cx="284.63" cy="98.06" rx="4.09" ry="4.39"/>
    <ellipse class="cls-3" cx="303.94" cy="98.06" rx="4.09" ry="4.39"/>
    <path class="cls-2" d="M363.71,209.45c.64,5.49,1.28,10.98,1.93,16.47,10.02-4.7,21.61,5.82,16.4,16.12,42.98,5.95,81.82,29.28,111.57,60.26,32.69,34.05,53.73,77.25,67.82,121.9,8.22,26.06,14.81,52.98,19.22,79.95"/>
    <path class="cls-2" d="M6.69,510.54c15.98-102.11,68.91-193.55,158.75-254.51,8.02-4.81,16.04-9.63,24.06-14.44s16.04-9.63,25.19-11.98"/>
    <path class="cls-2" d="M340.61,316.76c-16.17,8.34-32.24,5.65-41.62-6.97-2.65-3.57-4.9-7.97-8.67-9.51-3.76-1.54-9.75,1.16-12.27,7.41-2.5,6.19-.26,11.7,2.26,15.39,5.51,8.05,12.4,14.2,20.3,18.11"/>
    <path class="cls-2" d="M278.64,320.55c-3.43,4.06-5.01,10.43-4.65,15.3.37,4.87,2.33,8.51,4.51,11.62,5.39,7.67,12.42,13.05,20.51,15.7"/>
    <path class="cls-2" d="M273.58,338.46c-6.14,10.84-5.32,24.29-.52,31.19,4.8,6.9,12.53,8.87,20,10.65"/>
    <path class="cls-2" d="M269.69,367.51c-4.59,6.73-5.11,16.16-2.72,21.78,2.38,5.62,6.95,8.34,11.37,10.89,12.16,7.01,24.41,14.06,38.25,16.94"/>
    <path class="cls-2" d="M391.32,347.29c-6.28-12.12-12.66-24.39-21.9-34.54-9.24-10.15-21.83-18.09-35.72-19.01"/>
    <path class="cls-2" d="M393.95,359.41c-10.5,13.33-21.1,26.77-33.71,38.22-12.61,11.44-27.54,20.89-42.92,24.1"/>
    <path class="cls-4" d="M325.25,203.65c-3.34-10.16-10.97-18.83-21.76-21.04-10.25-2.1-19.35,3.04-24.43,11.88-9.51,16.56-8.91,45.93,10.58,55.12l1.06-.14c-.24-.74-.41-1.51-.49-2.3-.71-6.86,2.93-13.6,9.18-16.59,3.23-1.54,7.45-1.59,10.05,1.3,3.47,3.85,7.12,7.89,9.42,12.58.22.44.41.88.6,1.33l3.85-.49c3.47-13.5,6.41-28,1.93-41.64Z"/>
    <path class="cls-2" d="M308.29,308.46c-7.75-17.1-13.33-35.17-16.57-53.66-.97-5.52-1.71-11.29-.09-16.65,1.63-5.36,6.25-10.2,11.85-10.34,4.35-.11,8.39,2.63,10.95,6.14,2.57,3.52,3.92,7.76,5.17,11.92,7.23,24,12.8,48.5,16.64,73.27"/>
    <path class="cls-2" d="M403.23,356.09c27.65,5.19,54.22,16.28,77.06,32.7,7.16,5.14,14.21,11.16,17.51,19.33,3.3,8.18,1.57,18.98-5.96,23.56-6.14,3.74-15.02,1.95-19.24-3.87-4.22-5.82-3.14-14.82,2.33-19.49,7.21-6.14,18.24-3.87,26.87.03,20.81,9.4,38.03,26.5,47.58,47.24"/>
    <path class="cls-3" d="M296.77,130.04c-2.26.03-4.53.07-6.79.1-1.6,7.02-7.93,12.7-15.08,13.54-1.67.2-3.43.14-4.96-.56s-2.8-2.14-2.93-3.82c-2.48,2.67-1.56,7.34,1.19,9.72s6.71,2.88,10.33,2.44c4.67-.56,9.2-2.54,12.61-5.78,3.41-3.24,5.64-7.76,5.87-12.46"/>
    <path class="cls-3" d="M296.4,130.04c2.26.03,4.53.07,6.79.1,1.6,7.02,7.93,12.7,15.08,13.54,1.67.2,3.43.14,4.96-.56s2.8-2.14,2.93-3.82c2.48,2.67,1.56,7.34-1.19,9.72-2.76,2.39-6.71,2.88-10.33,2.44-4.67-.56-9.2-2.54-12.61-5.78-3.41-3.24-5.64-7.76-5.87-12.46"/>
  </g>
</svg>