<?xml version="1.0" encoding="UTF-8"?>
<svg id="_レイヤー_14" data-name="レイヤー 14" xmlns="http://www.w3.org/2000/svg" viewBox="0 0 531.24 588.72">
  <defs>
    <style>
      .cls-1 {
        fill: #fff;
      }

      .cls-2 {
        fill: none;
        stroke: #035dc4;
        stroke-linecap: round;
        stroke-linejoin: round;
        stroke-width: 4.5px;
      }

      .cls-3 {
        fill: #035dc4;
      }

      .cls-4 {
        fill: #8ed7f2;
      }
    </style>
  </defs>
  <path class="cls-1" d="M497.62,434.91c-15.88-33.56-37.08-62.73-62.14-85.73-2.9-4.4-6.3-8.47-10.17-12.09-6.28-5.88-14.47-11.77-23.21-13.94-3.95-8.6-11.71-15.5-20.9-18.53,3.55-6.57,6.66-15.5,4.52-24.51-2.1-8.86-10.91-17.4-20.96-16.71-.04-27.47-2.83-54.93-8.35-81.87,8.96-.33,17.65-4.75,22.9-11.75,5.15-6.87,6.81-15.73,4.56-24.32-1.1-4.22-3.15-8.07-5.87-11.25.08-.15.14-.31.18-.48,7.39-32.06,1.08-65.88-16.89-90.47-19.69-26.94-52.9-42.08-84.59-38.57-33.49,3.71-62.52,29.64-67.53,60.34-.06.38-.01.75.1,1.08-1.51,6.02-2.39,12.16-2.64,18.39-1.55-1.61-2.99-3.31-4.32-5.1-.73-.98-2.12-1.19-3.1-.46-.98.73-1.19,2.12-.46,3.1,3.21,4.32,7.04,8.15,11.32,11.46-.1.18-.19.37-.25.59-12.92,53.27-20.01,107.92-21.14,162.64-.44.25-.87.53-1.28.83-.35-.14-.74-.19-1.13-.12-6.47,1.03-12.32,4.92-15.67,10.39-2.71,4.44-3.69,9.77-2.81,14.84-5.8-.56-11.86,1.26-16.21,5.03-3.83,3.32-6.26,8.08-6.85,13.04-2.91,1.75-5.62,3.91-8.17,6.37-4.22,4.08-9.34,9.21-12.54,14.84-34.97,19.02-64.83,51.95-85.08,94.22-17.81,37.17-28.75,81.48-34.43,139.41-.48,1.82-.73,3.72-.73,5.69h0c0,12.38,10.13,22.51,22.51,22.51h110.41c.42.5,1.04.79,1.69.79.32,0,.64-.07.95-.21.4-.19.81-.38,1.22-.58h362.95c8.31,0,15.6-4.57,19.5-11.31,0,.38,0,.77-.02,1.15-.03,1.22.94,2.24,2.17,2.27.02,0,.03,0,.05,0,1.2,0,2.19-.96,2.22-2.17,1.07-47.34-9.23-95.34-29.78-138.79Z"/>
  <g>
    <path class="cls-2" d="M410.66,332.25c71.23,50.21,116.35,145.6,114.19,241.39"/>
    <path class="cls-2" d="M138.29,317.32c-43.48,18.45-77.01,56.61-97.69,99.79-20.68,43.18-29.61,91.27-34.27,139.1"/>
    <path class="cls-2" d="M348,163c.08-5.22,2.73-10.34,6.95-13.42,4.21-3.08,9.89-4.06,14.89-2.55"/>
    <path class="cls-2" d="M345.7,132.29c5.31-5.27,14.96-6.09,22.09-2.87,7.13,3.21,11.8,9.74,13.59,16.6,1.99,7.59.69,15.93-4.19,22.43-4.88,6.51-13.44,10.93-22.31,10.9"/>
    <path class="cls-2" d="M345.85,130.73c-1.57-10.05-4.77-19.85-9.43-28.95"/>
    <path class="cls-2" d="M345.13,87.13c-15.9,19.85-48.25,24.92-69.79,10.93-2.63-1.71-5.18-3.75-6.54-6.53-1.35-2.78-1.19-6.44,1.11-8.55,3.14-2.89,8.95-1.24,10.87,2.51,1.93,3.76.53,8.52-2.41,11.6-2.93,3.09-7.1,4.78-11.26,5.95-24.15,6.81-52.23-2.56-66.92-22.34"/>
    <path class="cls-2" d="M375.67,133.22c6.96-30.18,1.93-63.43-16.52-88.66-18.45-25.24-50.85-41.18-82.55-37.68-31.71,3.51-60.6,27.94-65.59,58.49"/>
    <path class="cls-2" d="M211.64,94.6c-13.91,57.35-21.05,116.25-21.24,175.17"/>
    <path class="cls-2" d="M353.78,181.38c6.69,32.43,9.42,65.62,8.12,98.67"/>
    <path class="cls-2" d="M370.54,277.58c-11.26,11.93-28.79,15.91-45.33,18.04-31.73,4.08-64.08,3.54-95.64-1.57-17.85-2.89-37.34-8.55-46.48-23.69"/>
    <path class="cls-2" d="M186.28,259.61c-5.81.93-11.12,4.45-14.12,9.36-3,4.91-3.63,11.12-1.67,16.5-6.09-1.74-13.06-.21-17.79,3.89-4.73,4.1-7.07,10.64-5.97,16.7"/>
    <path class="cls-2" d="M363.54,265.71c9.06-1.27,17.63,6.27,19.68,14.91s-1.06,17.72-5.7,25.37c10.89,2.55,20.13,10.92,23.48,21.28"/>
    <g>
      <ellipse class="cls-3" cx="254.26" cy="141.67" rx="6.67" ry="6.1" transform="translate(76.24 371.95) rotate(-81.42)"/>
      <ellipse class="cls-3" cx="284.08" cy="146.17" rx="6.67" ry="6.1" transform="translate(97.16 405.27) rotate(-81.42)"/>
    </g>
    <path class="cls-2" d="M271.68,186.8c4.97,6.39,14.17,9.1,21.81,6.42,7.64-2.68,13.13-10.55,13.01-18.64"/>
    <path class="cls-4" d="M182.66,441.63c-29.55-12.92-61.93-15.41-91.05-6.6,11.57,26.32,24.49,49.56,37.42,72.8l1.05,2.56c8.84-6.1,17.51-12.43,27-17.5,7.67-4.1,14.31,3.67,11.52,10.92,3.55.61,6.71,3.24,6.77,7.87.04,2.96.07,5.85-.15,8.62,2.98-1.03,6.75-.14,8.86,1.98,3.41,3.41,2.8,8.24,0,11.73-.75.94-1.5,1.87-2.26,2.8,7.58.76,15.1,2.07,22.37,3.92,20.63-7.76,48.25-8.8,71.36-2.37l.15-18.16c2.37-28.28,5.86-56.47,10.45-84.48-33.51-16.08-73.57-13.47-103.49,5.91Z"/>
    <g>
      <path class="cls-2" d="M138.03,582.32c15.59-7.36,31.55-14.98,43.56-27.35,2.29-2.36,4.47-4.97,5.47-8.1,1-3.13.59-6.91-1.78-9.19"/>
      <path class="cls-2" d="M142.59,542.82c10.82-2.39,20.85-8.22,28.28-16.43,3.14-3.47,5.92-7.58,6.35-12.24.43-4.66-2.18-9.85-6.71-11.01"/>
      <path class="cls-2" d="M149.28,557.68c11.41-2.42,22.11-8.13,30.48-16.25,2.5-2.43,4.84-5.13,6.19-8.34,1.35-3.21,1.61-7.03.03-10.13-1.58-3.11-5.26-5.22-8.64-4.39"/>
      <path class="cls-2" d="M133.01,531.7c11.98-4.68,22.84-12.21,31.42-21.8,2.45-2.74,4.8-5.79,5.52-9.4s-.64-7.87-3.97-9.43c-4.08-1.92-8.73.83-12.4,3.45-5.17,3.71-10.35,7.41-15.52,11.12-3.66,2.62-8.01,5.38-12.35,4.19-5.57-1.53-7.46-8.46-7.59-14.23s.27-12.29-3.7-16.49c-5.42-5.73-15.82-2.77-20.29,3.73-4.47,6.49-4.71,14.91-4.78,22.79-.12,12.58-.23,25.16-.35,37.74"/>
    </g>
    <g>
      <path class="cls-2" d="M265.34,427.07c8.21-7.27,20.26-9.93,30.77-6.78,10.51,3.15,19.11,11.99,21.97,22.58"/>
      <path class="cls-2" d="M279.28,418.27c5.5-7.77,15.21-12.36,24.71-11.66,9.5.7,18.44,6.65,22.74,15.14"/>
      <path class="cls-2" d="M301.62,405.2c7.25-6.3,18.39-7,27.1-2.94,8.71,4.07,15.03,12.27,18.29,21.31,3.26,9.04,3.71,18.87,2.97,28.45"/>
      <path class="cls-2" d="M280.81,480.74c3.6,7.91,10.24,14.38,18.23,17.8,7.99,3.42,17.25,3.74,25.46.89"/>
      <path class="cls-2" d="M308.27,510.35c24.26-11.23,42.67-34.32,47.32-62.42,5.85,4.08,11.71,8.16,17.56,12.24"/>
      <path class="cls-2" d="M388.06,465.25c20.67,5.89,39.34,18.62,52.37,35.71,3.5,4.59,6.69,9.71,7.32,15.45.64,5.73-1.94,12.17-7.25,14.43-4.61-1.14-6.89-7.08-5.11-11.48,1.78-4.4,6.57-7.06,11.3-7.45,4.73-.39,9.42,1.13,13.77,3.06,17.73,7.85,32.05,23.07,38.75,41.25"/>
      <path class="cls-2" d="M318.28,401.88c17.89-14.7,37.35-27.49,57.93-38.08,1.53,2.48,3.07,4.97,4.6,7.45-16.9,10.3-33.8,20.61-50.7,30.91"/>
    </g>
  </g>
</svg>