<?xml version="1.0" encoding="UTF-8"?>
<svg id="_レイヤー_14" data-name="レイヤー 14" xmlns="http://www.w3.org/2000/svg" viewBox="0 0 592.38 436.83">
  <defs>
    <style>
      .cls-1 {
        fill: #fff;
      }

      .cls-2 {
        fill: none;
        stroke: #035dc4;
        stroke-linecap: round;
        stroke-linejoin: round;
        stroke-width: 4px;
      }

      .cls-3 {
        fill: #035dc4;
      }
    </style>
  </defs>
  <g>
    <path class="cls-1" d="M361.64,245.93c-29.11-4.04-57.08-16.35-80.88-35.61-.86-.69-2.12-.56-2.81.3s-.56,2.12.3,2.81c24.37,19.72,53.01,32.33,82.85,36.46.09.01.19.02.28.02.98,0,1.84-.72,1.98-1.73.15-1.09-.61-2.1-1.71-2.26Z"/>
    <path class="cls-1" d="M592.21,336.36c-30.25-68.31-80.48-121.44-138.85-147.38-.75-.64-1.52-1.27-2.31-1.88-7.25-5.58-15.67-9.04-24.49-10.91.11-.25.22-.5.33-.75.43-1.02-.04-2.19-1.05-2.63-1.02-.43-2.19.04-2.63,1.05-.23.53-.47,1.05-.7,1.58-1.85-.29-3.71-.52-5.58-.68-2.21-12.23-6.45-24.11-12.38-34.67,3.69-1.55,6.92-4.48,9.29-8.46,3.26-5.5,4.28-12.22,2.71-17.98-1.51-5.55-5.46-10.36-10.63-13,.4-.24.73-.61.89-1.1,9.76-30.87-3.12-68.92-28.71-84.82-14.63-9.1-27.69-6.84-34.88-.34-17.32-15.33-42.93-18.83-62.96-8.39-19.18,9.99-32.53,31.61-34.5,55.03-.49,3.94-.65,7.95-.87,11.91-.52,9.4-.49,18.76,1.18,28.02-3.58-2.97-6.58-6.77-8.59-11.19-.46-1.01-1.64-1.45-2.65-.99-1,.46-1.45,1.64-.99,2.65,5.02,11.04,15.14,18.59,26.05,20.06.03,27.03,6.03,54.05,17.21,78.01-1.53-.01-3.06,0-4.58.08-.37-.28-.82-.44-1.31-.41-29.82,1.68-60.17,10.21-87.75,24.67-27.18,14.25-51.9,34.41-71.63,58.35-.26.06-.52.17-.75.35-14.61,11.11-27.45,21.41-39.87,31.37-.52.42-.8,1.08-.74,1.74.02.16.05.32.1.48-2.76,1.97-5.21,4.34-7.29,7.03-17.8,1.66-35.02,9.33-48.51,21.87-.58.58-1.19,1.17-1.82,1.79-4.65,4.53-10.44,10.16-12.44,18.38-1.46,5.98.33,13.44,4.36,18.15,2.26,2.63,5.02,4.12,7.91,4.32-.03,2.35.36,4.64,1.2,6.71,1.53,3.79,4.95,6.84,8.72,7.78.81.2,1.6.3,2.38.3,1.38,0,2.68-.32,3.85-.94.16,3.08.91,6,2.25,8.52,1.9,3.58,5.38,6.35,9.06,7.24.13.03.25.04.37.07-2.54,3.73-4.99,7.55-7.3,11.47-3.38,5.73-4.69,13.09.02,16.64,1.01.76,2.33,1.37,3.95,1.37,2.31,0,5.26-1.21,8.87-4.9l26.48-27c.34.28.78.45,1.25.45h.02c1.1-.01,1.99-.91,1.98-2.02,0-.28,0-.8.85-.97.99-.2,2.34.27,2.81,1.39,1.13,2.68-.43,6.04-2.55,7.97-1.09.99-2.34,1.81-3.66,2.67-1.66,1.08-3.38,2.21-4.89,3.76-3.02,3.11-4.83,8.69-2.22,12.93,1.17,1.89,2.91,3.11,5.04,3.52.55.11,1.12.16,1.71.16,2.8,0,6.01-1.17,8.9-3.31,11.72-8.63,20.5-21.74,25.13-36.73,9.65-1.06,19.02-3.6,27.93-7.54,44.63-14.99,87.73-32.34,128.3-51.65h324.19c.37.81.75,1.62,1.11,2.44.33.75,1.06,1.19,1.83,1.19.27,0,.55-.06.81-.17,1.01-.45,1.47-1.63,1.02-2.64Z"/>
    <path class="cls-1" d="M303.76,136.72c2.68-.73,4.27-4.08,3.53-7.48-.74-3.4-3.51-5.56-6.19-4.83-2.68.73-4.27,4.08-3.53,7.48.74,3.4,3.51,5.56,6.19,4.83Z"/>
    <path class="cls-1" d="M327.78,130.17c2.68-.73,4.27-4.08,3.53-7.48-.74-3.4-3.51-5.56-6.19-4.83-2.68.73-4.27,4.08-3.53,7.48.74,3.4,3.51,5.56,6.19,4.83Z"/>
  </g>
  <g>
    <path class="cls-2" d="M41.81,367.24c-3.55,4.34-7.16,8.79-9.26,14.27-2.1,5.48-2.47,12.26.39,17.62,2.85,5.36,9.48,8.34,13.94,5.24"/>
    <path class="cls-2" d="M30.7,356.51c-4.54,2.82-9.16,5.79-12.37,10.37-3.21,4.58-4.76,11.18-2.5,16.78,2.26,5.6,9.12,8.87,13.26,5.39"/>
    <g>
      <path class="cls-2" d="M58.96,387.19c-8.93,9.91-16.96,20.87-23.93,32.67-2.51,4.26-4.46,11.04-.5,14.03,3.32,2.5,7.39-.47,10.19-3.34,8.86-9.04,17.72-18.07,26.59-27.11"/>
      <path class="cls-2" d="M14.08,375.71c-8.04.68-13.76-11.27-11.63-20,2.13-8.73,8.99-14.48,13.73-19.23,15.82-14.71,36.64-22.49,57.69-21.57"/>
      <path class="cls-2" d="M108.71,370.11c.06,24.03-10.72,47.06-28.01,59.79-3.88,2.86-9.96,4.72-12.76.19-2.05-3.32-.56-7.91,1.95-10.48,2.5-2.57,5.82-3.95,8.46-6.35,2.64-2.4,4.58-6.59,3.05-10.23-1.54-3.64-7.54-3.57-7.51.38"/>
      <path class="cls-2" d="M117.3,379.85c-1.81-31.3-19.61-60.82-44.84-74.34,12.62-10.12,25.24-20.24,39.83-31.33,18.77,21.56,31.23,49.92,35.05,79.76"/>
      <path class="cls-2" d="M112.16,274.96c40.39-49.86,99.17-80.39,159.16-83.76"/>
      <path class="cls-2" d="M127.16,387.73c47.75-15.71,94.73-34.37,140.45-56.44"/>
      <path class="cls-2" d="M262.05,103.48c-1.48,34.27,6.82,68.99,23.38,97.83"/>
      <path class="cls-2" d="M391.48,101.82c8.92-4.03,20.34,2.09,23.15,12.4,2.81,10.32-3.63,22.55-13.03,24.79,7.05,11.89,11.84,25.46,13.93,39.54"/>
      <path class="cls-2" d="M235.66,90.64c5.71,12.57,18.68,20.46,31.19,18.99,12.51-1.47,23.73-12.22,26.99-25.85,1.39-5.8.43-13.65-4.7-15.35-5.64-1.87-10.46,5.93-10.03,12.51.75,11.53,10.91,20.08,21.15,21.47,10.23,1.4,20.39-2.68,29.89-7.17,6.73-3.18,13.73-6.95,17.65-13.86,3.92-6.91,3.07-17.81-3.5-21.38-7.75-4.21-17.07,5.71-16.31,15.33.76,9.62,8.21,17.01,16.12,20.81,10.87,5.21,23.55,5.47,34.57.7"/>
      <path class="cls-2" d="M247.5,67.1c-.03-24.74,13.67-48.86,33.68-59.28,20.01-10.42,45.27-6.6,62.1,9.38,8.58-9.56,23.19-7.31,33.76-.73,24.94,15.5,37.39,52.38,27.86,82.52"/>
      <path class="cls-2" d="M279.5,211.92c24.02,19.44,52.46,31.96,81.86,36.04"/>
      <path class="cls-2" d="M375.41,244.49c20.95-18.67,38.06-42.73,49.65-69.78"/>
      <path class="cls-2" d="M274.42,227.71c25.16,29.03,48.17,60.4,68.72,93.69,7.65-25.12,15.3-50.25,28.36-72.33,10.59,19.37,22.45,37.88,35.45,55.31,3.61-38.53,11.43-76.56,23.23-112.97"/>
      <path class="cls-2" d="M442.99,186.86c64.68,25.03,117.22,82.21,147.39,150.35"/>
      <path class="cls-3" d="M297.57,131.94c-.74-3.4.84-6.74,3.53-7.48,2.68-.73,5.46,1.43,6.19,4.83.74,3.4-.84,6.74-3.53,7.48-2.68.73-5.46-1.43-6.19-4.83Z"/>
      <path class="cls-3" d="M321.59,125.39c-.74-3.4.84-6.74,3.53-7.48,2.68-.73,5.46,1.43,6.19,4.83.74,3.4-.84,6.74-3.53,7.48-2.68.73-5.46-1.43-6.19-4.83Z"/>
    </g>
  </g>
</svg>