<?xml version="1.0" encoding="UTF-8"?>
<svg id="_レイヤー_12" data-name="レイヤー 12" xmlns="http://www.w3.org/2000/svg" viewBox="0 0 576 576.9">
  <defs>
    <style>
      .cls-1 {
        fill: none;
        stroke: #035dc4;
        stroke-linecap: round;
        stroke-linejoin: round;
        stroke-width: 4px;
      }
    </style>
  </defs>
  <path class="cls-1" d="M2,469.59c6.95-12.47,14.32-25.41,26.15-33.4,11.83-7.99,29.52-9.26,39.36,1.08,6.31-22.13,30.11-37.79,52.64-31.81,24.7-19.72,49.39-39.45,74.09-59.17,25.19,20.13,52.26,37.9,80.75,53-20.56,18.69-39.49,39.16-56.54,61.1"/>
  <path class="cls-1" d="M244.44,265.44c-7.33-26.29-11.85-53.36-13.45-80.6-.27-4.57-.44-9.27,1-13.62,1.44-4.35,4.84-8.33,9.34-9.18,7.79-1.47,14.03,6.51,16.78,13.94"/>
  <path class="cls-1" d="M229.75,179.26c-5.24-1.46-10.82,2.25-13.25,7.11-2.44,4.86-2.47,10.54-2.29,15.97.8,24.09,4.75,48.07,5.72,62.57,3.96,17.74,7.92,35.47,11.88,53.21-13.39,10.58-25.22,23.14-34.98,37.14"/>
  <path class="cls-1" d="M226.06,304.67c-3.37-6.85-9.36-11.99-15.22-16.88-5.86-4.89-11.91-9.92-15.47-16.68-3.56-6.75-4.04-15.75.95-21.53,4.99-5.78,16.05-5.59,19.2,1.37"/>
  <path class="cls-1" d="M265.98,261.75c-6.02-21.45-10.33-43.39-12.85-65.52-.49-4.3-.91-8.72.17-12.91,1.07-4.19,3.94-8.18,8.09-9.42,4.74-1.41,9.96,1.17,13.04,5.03,3.09,3.86,4.47,8.79,5.63,13.59"/>
  <path class="cls-1" d="M272.41,394.77c2.04-16.87,14.83-31.94,31.15-36.69,5.59-1.63,11.85-2.32,16.03-6.36,4.05-3.92,5.04-9.96,5.66-15.57,4.64-42.41.07-85.8-13.28-126.32-2.16-6.54-4.77-13.34-10.13-17.66-5.36-4.32-14.29-4.95-18.55.46-3.5,4.44-2.6,10.79-1.54,16.34,2.83,14.7,5.66,29.41,8.49,44.11"/>
  <path class="cls-1" d="M337.91,282.85c5.23-3.61,10.45-7.21,15.68-10.82,3.83-22.22,16.99-42.36,35.6-54.4,3.52-2.28,7.39-4.33,11.58-4.59,4.19-.26,8.76,1.69,10.45,5.54,1.9,4.34-.31,9.28-2.48,13.49-11.45,22.2-22.89,44.4-32.7,71.75,12.18,13.73,22.42,29.19,30.3,45.77"/>
  <path class="cls-1" d="M308.5,358.32c12.9,15.74,25.8,31.48,38.7,47.22"/>
  <path class="cls-1" d="M460.56,573.93c-13.79,3.44-28.51-4.98-36.08-17.01-7.58-12.02-9.29-26.82-9.18-41.03-12.19,2.77-24.07-8.15-27.05-20.29-2.97-12.14.48-24.83,3.9-36.85-17.56-20.54-34.44-40.77-51.31-60.99,29.8-3.32,58.32-24.57,69.94-54.48,16.28,17.53,32.55,35.06,50.44,51.59,22.48-6.98,49.1,3.24,61.15,23.46,3.83,6.44,6.27,14.48,3.37,21.39-2.89,6.91-12.92,10.7-18.27,5.45-5.02-4.93-2.39-14.22,3.52-18.04,5.91-3.81,13.56-3.49,20.47-2.19,15.75,2.95,30.64,10.33,42.53,21.06"/>
  <path class="cls-1" d="M197.93,434.85c17.35,7.82,25.58,29.44,22.05,48.15-3.53,18.7-16.61,34.41-31.86,45.8-4.05,3.02-8.45,5.88-13.44,6.64-4.99.77-10.7-1.07-13.1-5.51-2.82-5.22.32-12.4,5.78-14.74,5.45-2.34,12.16-.31,16.24,4,4.08,4.32,5.76,10.49,5.62,16.42-.37,15.93-12.33,29.05-24.55,39.29"/>
  <path class="cls-1" d="M374.04,227.76c-.12-17.95-.23-35.9-.35-53.85-.03-4.37-.08-8.84-1.62-12.93-1.54-4.09-4.92-7.77-9.24-8.41-4.52-.67-8.99,2.17-11.55,5.95-2.56,3.79-3.57,8.38-4.43,12.87-4.09,21.4-5.82,43.25-5.15,65.02"/>
  <path class="cls-1" d="M349.83,159.32c-1.99-3.68-4.04-7.43-7.14-10.23-3.1-2.81-7.51-4.53-11.52-3.37-6.57,1.9-8.87,9.89-9.87,16.65-2.81,18.96-3.8,38.19-2.96,57.34"/>
  <path class="cls-1" d="M322.96,155.66c-3.2-6.43-12.43-8.15-18.7-4.65-6.27,3.5-9.66,10.8-10.32,17.96-.65,7.15,1.02,14.29,2.68,21.28"/>
  <path class="cls-1" d="M277.43,184.88c-2.52-4.81-2.14-11.01.97-15.47,3.1-4.46,8.78-6.98,14.17-6.29"/>
  <path class="cls-1" d="M115.69,173.74c12.16,2.26,24.33,4.52,36.49,6.78"/>
  <path class="cls-1" d="M113.88,83.53c20.86,15.24,41,31.44,60.36,48.54"/>
  <path class="cls-1" d="M196.05,81.79c5.57,7.01,11.13,14.02,16.7,21.03"/>
  <path class="cls-1" d="M241.31,2c3.41,29.92,9.34,59.55,17.71,88.48"/>
  <path class="cls-1" d="M312.76,52.1c-.63,10.51-1.26,21.03-1.89,31.54"/>
  <path class="cls-1" d="M358.13,88.91c14.11-26.89,32.68-51.43,54.71-72.32"/>
  <path class="cls-1" d="M397.67,104.68c5.86-7.95,13.53-14.56,22.26-19.17"/>
  <path class="cls-1" d="M424.6,146.32c20.74-14.29,44.35-24.4,69-29.57"/>
  <path class="cls-1" d="M432.87,172.53c6.8-1.88,13.59-3.77,20.39-5.65"/>
  <path class="cls-1" d="M77.93,228.36c24.45-6.84,49.54-11.4,74.83-13.6"/>
  <path class="cls-1" d="M122.31,260.88c7.98-4.44,15.96-8.87,23.94-13.31"/>
  <path class="cls-1" d="M50.25,271.25c3.72,7.35,7.52,15.04,7.59,23.28.08,8.24-4.8,17.15-12.87,18.82,6.24-.16,11.93,4.03,15.31,9.27,3.37,5.25,4.84,11.46,6.26,17.53-3.69-13.03,1.52-28.09,12.47-36.06-9.72,2.43-20.39-6.91-19.27-16.86"/>
  <path class="cls-1" d="M504.34,211.05c8.01,12.1,4.75,30.26-6.97,38.81,9.04-.58,16.85,9.83,13.77,18.34.05-9.88,4.88-19.62,12.73-25.63-7.31.98-14.3-6.91-12.43-14.05"/>
</svg>