<?xml version="1.0" encoding="UTF-8"?>
<svg xmlns="http://www.w3.org/2000/svg" viewBox="0 0 595.74 440.65">
  <defs>
    <style>
      .cls-1 {
        stroke-width: 2px;
      }

      .cls-1, .cls-2 {
        stroke: #035dc4;
      }

      .cls-1, .cls-2, .cls-3 {
        fill: none;
        stroke-linecap: round;
        stroke-linejoin: round;
      }

      .cls-4 {
        fill: #fff;
      }

      .cls-2 {
        stroke-width: 3px;
      }

      .cls-5 {
        fill: #035dc4;
      }

      .cls-3 {
        stroke: #8ed7f2;
        stroke-width: 12px;
      }

      .cls-6 {
        fill: #8ed7f2;
      }
    </style>
  </defs>
  <g id="_レイヤー_2" data-name="レイヤー 2">
    <path class="cls-4" d="M590.87,186.77c-5.28-12.58-14.7-23.27-26.52-30.09-.53-.31-1.17-.25-1.63.09-.21-.25-.43-.48-.65-.7.05-.13.1-.26.11-.4.41-4.36-1.81-8.77-5.47-11.13.48-2.85-.04-5.85-1.49-8.37-1.64-2.86-4.41-4.99-7.59-5.86-.08-.02-.15-.03-.23-.04-.21-1.51-.45-3.01-.72-4.5.74-2.28,1.17-4.9,1.17-7.69s-.44-5.49-1.21-7.8c.16-.27.24-.59.2-.93-.58-4.84-3.14-9.32-7.01-12.29-3.87-2.97-8.86-4.28-13.69-3.59-3.4.49-6.1,1.99-7.59,4.2-2.82-.23-5.6.53-7.94,2.19-2.14,1.53-3.95,3.8-5.36,6.76-2.4,5.03-3.15,10.81-2.1,16.28.07.39.3.7.59.91-.57,1.92-.17,4.09,1.11,5.64-2.2,1.73-4.68,3.69-6.45,6.23-2.12,3.05-2.83,6.5-1.97,9.46.07.24.15.48.23.72.21.61.4,1.19.3,1.55-.12.43-.75.84-1.42,1.28-.25.16-.5.33-.74.5-2.88,2.08-4.2,5.97-3.36,9.39-7.73,5.47-14.21,12.66-18.8,20.98,1.37-5.2,2.43-10.36,3.14-15.46,2.98-21.41.14-41.94-8.23-59.36-9.07-18.88-24.63-33.38-42.8-39.96-1.42-.83-2.88-1.4-4.32-1.71.62-6.66.44-13.36-.57-19.98,1.28-.9,2.69-2.26,3.45-4.17.25-.64.4-1.3.46-1.96.6-.77,1.09-1.63,1.48-2.56.37-.08.7-.3.93-.64,4.86-7.44,3.5-18.38-3.04-24.4-2.65-2.44-6.64-4.12-10.07-2.87-4.22-4.98-11.11-7.45-17.54-6.17-4.77.95-8.98,3.9-11.65,7.9-2.55,1.9-4.25,5.13-4.3,8.83-.25-.72-1-1.16-1.76-.98-.81.19-1.3,1-1.11,1.81.66,2.8,2.54,5.21,4.99,6.65-3.95,12.81-5.71,26.08-5.21,39.48-.11-.05-.22-.06-.33-.08-.5-.47-1.27-.55-1.86-.16-15.52,10.33-28.15,25.65-35.56,43.16-1.95,4.61-3.53,9.38-4.73,14.2-4.2-5.23-8.87-10.47-14.42-14.9-7.34-5.85-15.33-9.4-23.11-10.26-.13-.01-.26,0-.39.01-.55-.39-1.15-.72-1.77-.97.06-1.74-.67-3.51-1.97-4.67-.94-.84-2.17-1.35-3.44-1.47-.01-1.1-.31-2.19-.87-3.14-.9-1.51-2.44-2.6-4.16-2.95-.31-13.02-1.95-26.02-4.9-38.7.88-.76,1.69-1.62,2.37-2.57.48-.67.33-1.61-.34-2.09-.67-.48-1.61-.33-2.09.34-.19.26-.39.51-.6.76.01-.25.03-.49.03-.74,0-.52-.04-1.04-.11-1.54.57-.28.92-.91.82-1.57-1.25-7.89-8.47-14.55-16.79-15.5-7.83-.9-16.03,2.95-20.88,9.8-4.34,6.13-5.9,14.52-4.2,22.5-.58.8-1.03,1.72-1.28,2.71-.6,2.37-.15,4.81,1.23,6.71,1.19,1.64,3.05,2.76,5.06,3.13-1.13,5.99-1.73,12.08-1.79,18.17-2.57.25-4.6,2.5-5.13,4.81-.4,1.75-.16,3.69.7,5.68-2.28,1.1-4.11,3.14-4.87,5.57-.07.22-.08.44-.05.66-.64.21-1.26.5-1.84.85-.28-.09-.59-.09-.89,0-23.79,7.52-37.03,30.66-42.79,43.79-6.81,15.5-9.37,29.81-7.61,42.53,2.17,15.71,11.31,28.9,23.89,34.61.57,2.85,1.17,5.69,1.83,8.52-9.09-4.23-18.68-7.35-28.52-9.26-2.61-1.12-4.34-2.23-6.18-3.4-.6-.38-1.39-.29-1.89.22-.33.34-.66.66-.99.99l-3.89-7.34.04-.39c.26-2.23.56-4.77-.34-7.12-.07-.18-.17-.35-.25-.53.74-.05,1.35-.64,1.4-1.4.38-6.06.8-12.94-1.5-19.21-2.08-5.66-7.47-11.67-14.54-11.9-4.86-5.26-12.19-8.04-19.32-7.26-7.36.8-14.12,5.33-17.65,11.83-.11.2-.16.42-.18.64-2.35.6-4.36,2.17-5.7,4.33-.59-.12-1.21.11-1.56.64-2.64,4.01-1.63,9.92,2.3,13.47,1.33,1.21,2.96,2.12,4.77,2.74,2.35,16.02,10.81,30.98,23.29,41.29-.88.29-1.77.56-2.67.83-.72.21-1.17.92-1.06,1.66.58,3.95,2.11,7.75,4.42,11,.1.15.24.26.38.36.26.74.57,1.44.96,2.09-4.82,6.46-7.94,14.18-8.74,22.28-.12,1.23-.2,2.59-.06,3.97-.87.55-1.69,1.17-2.48,1.81,0-.03.02-.06.02-.1.1-.82-.48-1.57-1.31-1.67-11.28-1.38-22.76-2-34.14-1.87-3.03-4.9-7.49-8.84-12.75-11.23-.63-.29-1.38-.1-1.8.44-.24.31-.33.68-.3,1.05-5.64-5.62-12.28-14.04-18.17-20.37-3.46,3.28-7.44,6.03-11.75,8.12l-.04-.03c-.63-.54-1.58-.46-2.12.17-.25.29-.36.65-.35,1-.02.01-.05.02-.07.03.02.02.05.04.07.07.03.38.21.75.52,1.01l20.14,17.14c-2.94,2.8-4.38,5.77-4.26,8.85.13,3.17,2.02,6.28,5.18,8.53,4.77,3.4,10.65,4.44,15.91,5.3,3.03,4.21,6.54,8.07,10.45,11.49-8.96,21.34-16.7,43.28-23.17,65.56-.37-.56-1.09-.82-1.75-.58-13.18,4.74-26.74,8.91-40.31,12.4,0-.04-.01-.08-.03-.13-2.62-8.28-6.07-16.33-10.26-23.94-1.22-2.21-2.82-4.54-5.47-5.07-3.12-.62-5.9,1.65-7.02,4.21-1.07,2.44-.97,5.18-.89,7.38l1.94,52.74c.03.79.66,1.42,1.44,1.44,1.14.04,2.28.06,3.42.06,6.81,0,13.61-.74,20.26-2.21.41-.09.74-.34.95-.67,6.68-.83,13.68-1.67,20.63-2.5-4.95,2.11-9.65,4.77-14.04,7.95-.74.54-3.18,2.48-3.52,4.99-.15,1.07.13,2.08.79,2.92,1.26,1.59,3.41,1.71,4.56,1.77l48.25,2.73c.6.03,1.21.06,1.82.06,2.06,0,4.09-.31,5.74-1.65,2.7-2.21,2.67-5.67,2.64-8.72-.02-2.34-.05-4.55.99-6.12.31-.48.31-1.07.06-1.54,0,0,0-.02,0-.03-.03-.16-.09-.3-.17-.44.54-.92.97-1.93,1.26-3,.22.12.47.2.74.2h.01l70.19-.64c.68,0,1.25-.47,1.42-1.09,10.09,5.85,21.74,8.91,33.4,8.91,5.18,0,10.35-.61,15.39-1.84-.18.72-.15,1.43.1,2.12.65,1.77,2.47,2.68,5.39,2.7,2.04.02,4.08.02,6.13.02,11.27,0,22.64-.25,33.86-.75.28-.01.54-.11.75-.25.74,1.64,1.89,3.15,3.68,4.18,2.28,1.31,4.96,1.36,7.11,1.4l51.62.97c.17,0,.35,0,.56,0,1.46,0,3.79-.18,5.11-1.97,2.16-2.93-.31-6.41-3.09-8.5-9.47-7.11-19.66-13.38-30.29-18.63-.09-.05-.19-.08-.29-.11.2-.2.36-.44.42-.73,10.37-47.31,19.31-95.58,26.59-143.46.62-.26,1.01-.91.91-1.6-.1-.66-.61-1.15-1.23-1.25,4.93-15.69,8.17-31.91,9.7-48.29.18-.06.36-.16.51-.3,1.72-1.54,3.31-3.08,4.82-4.61.29,2.22.86,4.25,1.63,6.02,4.26,66.28,15.14,133.71,32.36,200.45-9.1,6.23-17.65,13.32-25.43,21.12-.39.39-.53.96-.38,1.49.16.53.59.93,1.13,1.04,9.88,2.08,19.88,3.13,29.91,3.13,6.1,0,12.21-.39,18.3-1.16,2-.25,4.27-.66,5.85-2.3,1.81-1.88,1.96-4.63,2.05-6.45l.45-8.5c.14.15.27.3.43.43,1.44,1.21,3.4,1.5,5.28,1.7,5.48.56,10.98.85,16.46.85,9.02,0,18.02-.76,26.91-2.28.58-.1,1.05-.53,1.2-1.1.15-.57-.05-1.17-.51-1.54-7.22-5.86-15.17-11.17-23.63-15.82-1.34-.87-2.87-1.51-4.55-1.88,16.41-61.92,28.24-125.6,35.17-189.27.09-.82-.51-1.56-1.33-1.65-.18-.02-.35,0-.52.05,0-.19,0-.38,0-.57,1.54-3.14,2.97-6.28,4.29-9.41-1.04,6.47-1.08,13.1-.07,19.61,1.04,6.68,3.33,11.12,7,13.57.59.4,1.23.73,1.9,1.02-.08.22-.12.47-.09.72l7.52,57.31c-.23.31-.34.71-.27,1.12l18.66,116.58-19.13,16.49c-.55.48-1.85,1.76-1.92,3.33-.03.76.23,1.45.75,1.99.78.8,1.85.9,2.42.96l42.92,4.17s.1,0,.14,0c.36,0,.71-.13.98-.36.31-.27.5-.65.52-1.06l1.11-21.46c.02-.3-.06-.58-.2-.82,0-.05.02-.09.02-.14l4.08-69c1.08,22.49,1.75,45.07,1.97,67.45,0,.51.28.95.68,1.22-1.49,7.27-2.18,14.71-2.04,22.13.01.74.57,1.36,1.31,1.46,12.42,1.59,25.05,2.39,37.59,2.39,1.44,0,2.89-.01,4.33-.03.49,0,.95-.25,1.22-.66.27-.41.33-.92.15-1.38-3.5-8.98-9.84-16.74-17.91-21.99.16-.22.28-.47.3-.76,2.86-38.29,9.02-76.6,18.31-113.86.05-.21.06-.42.02-.62.08-.2.11-.43.09-.66-.03-.29-.14-.55-.3-.76l10.57-59.16c.07-.4-.02-.79-.24-1.1,2.51-2.37,4.37-5.97,5.65-10.91,3.41-13.21,2.38-27.42-2.9-40ZM115.78,369.79c2.7-6.3,5.46-12.58,8.31-18.8,2.01,5.24,4.03,10.34,6.12,15.26l-14.43,3.54ZM453.13,147.32c-.15,0-.53-.27-.94-1,.43,0,.74.1.93.33.04.05.08.18.07.35-.02.2-.1.33-.07.33Z"/>
  </g>
  <g id="_レイヤー_14" data-name="レイヤー 14">
    <g>
      <g>
        <g>
          <path class="cls-6" d="M68.69,281.39c1.65-.01,3.25-.24,4.86-.6.15-.03.3-.04.45-.03-.05-.31,0-.64.19-.98,1.08-1.98,1.32-4.35,2.72-6.17.04-.05.08-.09.11-.13-6.24-5.06-14.55-15.91-21.74-23.63-4.14,3.93-9.03,7.1-14.33,9.3,8.55,8.02,17.62,15.5,27.14,22.38.18-.07.38-.12.61-.12Z"/>
          <path class="cls-2" d="M245.82,53.21c-1.25-1.28-3.53-1.48-5.21-.7s-2.78,2.37-3.21,4.04c-.47,1.85-.16,3.88.99,5.46s3.17,2.66,5.27,2.65"/>
          <path class="cls-2" d="M245.78,52.83c.37-2.45,1.13-4.84,2.23-7.05"/>
          <path class="cls-2" d="M245.95,42.21c3.75,4.84,11.39,6.07,16.47,2.66.62-.42,1.22-.91,1.54-1.59s.28-1.57-.26-2.08c-.74-.7-2.11-.3-2.57.61s-.12,2.07.57,2.83,1.68,1.16,2.66,1.45c5.7,1.66,12.33-.62,15.8-5.44"/>
          <path class="cls-2" d="M238.74,53.43c-1.64-7.35-.45-15.45,3.9-21.6s12-10.03,19.49-9.18c7.48.85,14.3,6.81,15.48,14.25"/>
          <path class="cls-2" d="M277.46,44.03c3.28,13.97,4.97,28.32,5.01,42.67"/>
          <path class="cls-2" d="M243.91,65.17c-1.58,7.9-2.22,15.98-1.92,24.03"/>
          <path class="cls-2" d="M239.95,88.6c2.66,2.91,6.8,3.88,10.7,4.39,7.49.99,15.13.86,22.58-.38,4.21-.71,8.81-2.08,10.97-5.77"/>
          <path class="cls-2" d="M255.4,57.96c.28,2.21,1.84,4.22,3.91,5.04s4.58.42,6.3-1.01"/>
          <path class="cls-2" d="M283.45,84.22c1.37.23,2.63,1.08,3.33,2.28s.86,2.71.39,4.02c1.44-.42,3.08-.05,4.2.95s1.67,2.59,1.41,4.07"/>
          <path class="cls-2" d="M241.42,85.71c-2.14-.31-4.16,1.53-4.64,3.63s.25,4.32,1.35,6.18c-2.57.62-4.75,2.66-5.54,5.18"/>
          <path class="cls-2" d="M228.81,103.2c-19.66,6.21-33.58,24.08-41.87,42.96-5.76,13.1-9.46,27.54-7.5,41.72,1.96,14.18,10.39,27.99,23.52,33.68"/>
          <path class="cls-2" d="M296.33,97.47c8.21.91,15.88,4.8,22.34,9.94s11.82,11.53,16.87,18.07c6.08,7.86,11.83,16.1,15.6,25.3,3.77,9.2,5.45,19.49,3.2,29.17-2.7,11.59-10.73,21.23-19.59,29.18"/>
          <path class="cls-2" d="M197.95,159.45c-.96,35.13,4.72,70.44,16.66,103.5"/>
          <path class="cls-2" d="M332.1,153.84c5.48,35.57,2.5,72.42-8.63,106.64"/>
          <path class="cls-2" d="M215.02,263.21c36.7,3.45,73.81,2.47,110.28-2.91"/>
          <path class="cls-2" d="M263.18,279.49c3.13,42.46,3.44,85.13.92,127.62"/>
          <path class="cls-2" d="M324.41,261.3c-7.31,48.11-16.18,95.99-26.6,143.52"/>
          <path class="cls-2" d="M263.86,406.46c10.19,4.53,22.05,5.2,32.69,1.83"/>
          <path class="cls-2" d="M215.09,265.05c7.48,46.64,18.2,92.76,32.15,137.38,5.07,2.34,10.59,3.71,16.17,4"/>
          <path class="cls-2" d="M298.48,407.32c10.56,5.22,20.63,11.41,30.05,18.49,2.08,1.56,4.33,4.32,2.79,6.41-.96,1.29-2.82,1.38-4.43,1.35-17.21-.32-34.42-.65-51.62-.97-2.19-.04-4.49-.11-6.39-1.2-3.48-1.99-4.39-6.62-4.12-10.62s1.34-8.07.38-11.96"/>
          <path class="cls-2" d="M246.84,403.61c-8.87,5.61-17.32,11.9-25.24,18.8-1.16,1.01-2.42,2.44-1.89,3.88.54,1.45,2.45,1.71,3.99,1.72,13.31.11,26.62-.13,39.92-.73"/>
          <path class="cls-2" d="M111.11,197.85c2.3,16.12,10.97,31.25,23.73,41.37"/>
          <path class="cls-2" d="M150.82,206.74c-.5-2.39,1.6-4.86,4.03-5.07s4.79,1.52,5.66,3.8.4,4.93.15,7.26l4.63,8.74"/>
          <path class="cls-2" d="M103.85,182.91c-2.34,3.55-1.11,8.68,2.05,11.53s7.73,3.69,11.96,3.19,8.2-2.19,12.11-3.87c5.5,3.25,10.73,6.96,15.61,11.08"/>
          <path class="cls-2" d="M111.36,177.19c3.29-6.05,9.65-10.32,16.5-11.06,6.84-.74,13.98,2.06,18.48,7.26,6.26-.14,11.65,5.04,13.81,10.92s1.8,12.35,1.41,18.6"/>
          <path class="cls-2" d="M134.87,252.21c-2.17-3.06-3.61-6.63-4.16-10.35,14.81-4.37,27.57-11.79,37.45-22.04,1.87,1.19,3.74,2.38,6.54,3.57,10.27,1.98,20.28,5.28,29.71,9.8"/>
          <path class="cls-2" d="M150.18,244.28c-12.36,6.66-21.06,19.7-22.44,33.67-.2,2.01-.25,4.09.48,5.98s2.37,3.53,4.38,3.71,4.14-1.54,3.93-3.55c-.18-1.7-1.88-2.94-3.59-3.09s-3.37.55-4.86,1.39c-4.81,2.71-8.66,7.1-10.71,12.23"/>
          <path class="cls-2" d="M168.47,318.21c-14.39,8.34-31.91,11.1-48.17,7.58-16.25-3.52-31.07-13.28-40.72-26.82,3.48-4.72,5.75-10.33,7.38-17.5,11.79-.21,23.59.41,35.29,1.85"/>
          <path class="cls-2" d="M90.57,311.55c-14.26,33.89-25.42,69.09-33.29,105.01"/>
          <path class="cls-2" d="M132.17,330.34c-14.06,28.83-26.53,58.44-37.33,88.64"/>
          <path class="cls-2" d="M57.54,415.44c10.73,7.14,24.29,9.87,36.94,7.44"/>
          <path class="cls-2" d="M124.79,348.59c9.42,24.69,20.06,50.95,42.02,65.64,15.18,10.16,34.8,13.39,52.44,8.65"/>
          <path class="cls-2" d="M169.86,320.38c22.44,9.23,43.76,21.17,63.34,35.48"/>
          <path class="cls-2" d="M58.07,418.52c-8.08,2.24-15.76,5.94-22.55,10.87-1.9,1.38-3.9,3.93-2.44,5.76.79.99,2.21,1.14,3.47,1.21,16.08.91,32.17,1.82,48.25,2.73,2.27.13,4.77.18,6.52-1.25,3.95-3.23.52-10.24,3.32-14.51"/>
          <path class="cls-2" d="M97.79,417.85l70.19-.64"/>
          <path class="cls-2" d="M54.92,417.96c-9.56,1.14-19.12,2.27-28.16,3.4l-2.79-30.98c13.71-3.52,27.25-7.69,40.57-12.47"/>
          <path class="cls-2" d="M22.26,389.22c-2.59-8.2-6-16.14-10.14-23.67-1.03-1.87-2.35-3.9-4.45-4.32-2.23-.44-4.44,1.26-5.36,3.34s-.85,4.45-.76,6.72c.65,17.58,1.29,35.16,1.94,52.74,7.81.28,15.66-.43,23.3-2.11"/>
          <path class="cls-2" d="M114.61,371.62c5.62-1.38,11.23-2.76,16.85-4.13"/>
          <path class="cls-2" d="M79.27,298.64c-5.52-.9-11.25-1.89-15.8-5.13s-7.52-9.45.2-15.94c1.8,3.29,6.59,4.47,9.71,2.39s3.88-6.95,1.55-9.88c5.66,2.58,10.41,7.12,13.23,12.66"/>
          <path class="cls-2" d="M42.51,259.07c8.12,6.92,16.25,13.83,24.37,20.75"/>
          <path class="cls-1" d="M50.84,260.28c6.95,6.58,13.89,13.17,20.84,19.75"/>
          <path class="cls-1" d="M57.37,259.92c5.9,5.78,11.8,11.56,17.7,17.33"/>
        </g>
        <g>
          <path class="cls-6" d="M558.68,193.31c-10.7,0-10.68-16.59,0-16.59.64,0,1.23.06,1.79.17l.95-15.41c-.24-.25-.57-.42-.94-.45-9.4-.81-19.09.24-28.12,3.01-.15-.25-.37-.46-.65-.59-4.09-1.93-8.85-2.9-14.99-3.07-2.69-.07-5.4,0-8.03.08-2.23.07-4.53.13-6.78.11h-.02c-.81,0-1.47.64-1.5,1.44l-.17,4.65c-.09.35-.14.7-.14,1.07v2.88l-.08,2.1c0,.18.02.35.08.52v1.62c.97-.42,2.1-.66,3.38-.66,10.7,0,10.68,16.59,0,16.59-1.28,0-2.4-.24-3.38-.66v15.87c-.13.14-.24.32-.31.52-.27.78.13,1.64.9,1.91,10.03,3.61,21.39,3.23,32.06-1.06,5.27,2.76,11.2,4.19,17.13,4.19,2.87,0,5.74-.34,8.53-1.02l1.07-17.26c-.25.02-.51.04-.78.04Z"/>
          <path class="cls-2" d="M507.76,150.44c.57-5.63,1.14-11.25,1.72-16.88.07-.67.13-1.38-.12-2.01-.48-1.19-1.86-1.68-2.83-2.51-1.68-1.43-2.04-4.18-.78-5.99s3.95-2.45,5.84-1.43c.49-1.7.97-3.41,1.46-5.11"/>
          <path class="cls-2" d="M542.91,115.88c2.86,10.25,4.22,20.92,4.03,31.57"/>
          <path class="cls-2" d="M521.49,127.71c.29,2.22,2.32,3.84,4.41,4.64,1.63.62,3.44.9,5.12.41s3.15-1.84,3.46-3.56"/>
          <path class="cls-2" d="M510.86,119.54c1.03-3.41,3.24-6.45,6.17-8.47-1.04,1.19.34,3.21,1.93,3.31s2.99-.93,4.23-1.92c1.74-1.39,3.49-2.77,5.23-4.16.74-.59,1.6-1.21,2.53-1.08,1.11.15,1.79,1.25,2.43,2.16,1.81,2.6,4.56,4.54,7.61,5.38"/>
          <path class="cls-2" d="M504.64,122.63c-.99-5.15-.28-10.61,1.98-15.35,1.14-2.39,2.72-4.64,4.88-6.18s4.97-2.3,7.87-1.8c1.24-2.58,4.17-3.92,7.01-4.33,4.4-.63,9.03.59,12.56,3.29s5.9,6.87,6.43,11.28"/>
          <path class="cls-2" d="M505.87,130.59c-2.27,1.78-4.58,3.6-6.22,5.97s-2.57,5.42-1.76,8.19c.3,1.02.83,2.07.54,3.09-.34,1.24-1.69,1.84-2.73,2.59-2.73,1.97-3.77,5.95-2.36,9"/>
          <path class="cls-2" d="M547.25,131.77c2.79.76,5.25,2.66,6.69,5.16s1.84,5.58,1.09,8.37c3.7,1.86,6.06,6.11,5.67,10.24"/>
          <path class="cls-2" d="M507.21,151.39c12.62,4.97,27.54,3.69,39.13-3.35"/>
          <path class="cls-2" d="M497.67,180.11c.32-3.66,3.9-6.63,7.57-6.51s6.96,3.13,7.67,6.73-1.05,7.49-4.07,9.57c-1.33.91-2.9,1.5-4.51,1.49s-3.24-.68-4.25-1.93"/>
          <path class="cls-2" d="M496.84,179.81c-.5,4.09.2,8.31,1.97,12.03.78,1.63,2.22,3.39,4.37,4.63-1.46,11.3-3.33,23.45-11.31,31.58-2.39,2.43-5.31,4.42-8.61,5.28s-6.99.49-9.82-1.4c-4.02-2.69-5.61-7.79-6.36-12.56-2.05-13.12.32-26.9,6.63-38.58,6.31-11.69,16.53-21.22,28.63-26.7"/>
          <path class="cls-2" d="M472.41,195.34c1.76-5.56,7.06-9.81,12.86-10.34,1.45-.13,3.16.08,3.93,1.32.75,1.2.21,2.85-.78,3.86-1.35,1.38-3.94,1.79-5.1.24-.64-.85-.66-2.05-.28-3.05s1.1-1.82,1.87-2.56c2.49-2.39,5.6-4.14,8.94-5.02"/>
          <path class="cls-2" d="M565.72,184.36c.04-3.67-3.24-6.98-6.9-7.21s-7.23,2.43-8.29,5.95.31,7.56,3.12,9.92c1.23,1.03,2.74,1.78,4.34,1.92s3.29-.36,4.42-1.51"/>
          <path class="cls-2" d="M566.58,184.14c.1,4.12-1.01,8.26-3.14,11.78-.94,1.55-2.54,3.15-4.81,4.18.36,11.39,1.03,23.66,8.18,32.53,2.14,2.65,4.85,4.91,8.05,6.09,3.2,1.17,6.91,1.17,9.91-.44,4.26-2.29,6.34-7.2,7.55-11.88,3.32-12.86,2.31-26.8-2.83-39.05s-14.38-22.73-25.89-29.37"/>
          <path class="cls-2" d="M589.37,201.98c-1.21-5.7-6.06-10.45-11.79-11.54-1.43-.27-3.15-.23-4.04.93-.86,1.12-.48,2.81.4,3.92,1.21,1.51,3.74,2.16,5.06.74.72-.78.86-1.98.58-3s-.92-1.92-1.61-2.73c-2.25-2.62-5.17-4.67-8.4-5.87"/>
          <path class="cls-2" d="M532.54,169.2l-.23,36.55"/>
          <path class="cls-2" d="M475.91,234.7c2.53,19.3,5.07,38.59,7.6,57.89,30.42,7.11,61.99,9.23,93.09,6.26"/>
          <path class="cls-2" d="M586.89,238.52c-3.58,20.05-7.17,40.1-10.75,60.15"/>
          <path class="cls-2" d="M483.16,293.09c6.27,39.14,12.53,78.28,18.8,117.43,7.92.73,15.83,1.46,23.75,2.19"/>
          <path class="cls-2" d="M532.16,316.74c-1.9,32.06-3.79,64.13-5.69,96.19"/>
          <path class="cls-2" d="M531.55,309.29c2.31,34.01,3.63,68.08,3.97,102.16,6.86.66,13.72,1.32,20.59,1.98"/>
          <path class="cls-2" d="M576.53,299.62c-9.33,37.42-15.48,75.64-18.35,114.11"/>
          <path class="cls-2" d="M501.84,410.6c-6.55,5.65-13.1,11.29-19.65,16.94-.94.81-1.94,2.25-1.07,3.14.37.39.96.46,1.49.51,14.31,1.39,28.62,2.78,42.92,4.17.37-7.15.74-14.31,1.11-21.46"/>
          <path class="cls-2" d="M536.65,410.77c-1.8,7.87-2.63,15.95-2.48,24.02,13.83,1.76,27.78,2.55,41.72,2.34-3.54-9.06-10.12-16.91-18.42-21.97"/>
        </g>
        <g>
          <path class="cls-3" d="M409.05,122.56l2.21-1.15c-4.32,2.24-8.81,4.16-12.99,6.66-4.18,2.49-8.11,5.63-10.68,9.77"/>
          <path class="cls-3" d="M381.66,138.23l2.44,2.16c-4.78-4.2-9.3-8.86-14.27-12.7-4.97-3.85-10.48-6.9-16.31-7.47"/>
          <path class="cls-2" d="M383.44,23.98c-4.12,12.96-5.97,26.64-5.44,40.24"/>
          <path class="cls-2" d="M416.22,32.74c1.37-1.24,3.73-.92,4.97.44s1.42,3.48.75,5.2-2.1,3.06-3.69,4c1.24,7.48,1.41,15.13.51,22.66"/>
          <path class="cls-2" d="M392.51,37.64c1.33,1.47,3.24,2.4,5.22,2.52s3.99-.55,5.49-1.85"/>
          <path class="cls-2" d="M378.18,17.54c.84,3.52,3.99,6.37,7.58,6.86s7.38-1.44,9.12-4.61c.74-1.35.95-3.37-.39-4.15-1.46-.85-3.29.77-3.56,2.44-.49,2.93,1.84,5.75,4.62,6.79s5.87.72,8.8.24c2.07-.34,4.26-.8,5.78-2.26s1.94-4.23.31-5.57c-1.91-1.58-5.12.26-5.49,2.72s1.27,4.8,3.25,6.29c2.73,2.04,6.26,2.96,9.63,2.52"/>
          <path class="cls-2" d="M382.83,14.3c1.49-6.17,6.79-11.26,13.02-12.5s13.07,1.43,16.81,6.56c2.98-1.8,6.93-.25,9.49,2.11,6.04,5.56,7.29,15.61,2.8,22.48"/>
          <path class="cls-2" d="M375.9,65.38c5.74,6.31,13.08,11.15,21.15,13.93"/>
          <path class="cls-2" d="M401.19,79.28c6.89-3.44,12.99-8.46,17.69-14.57"/>
          <path class="cls-2" d="M373.63,69.05c5.55,8.79,10.36,18.04,14.38,27.63,3.49-5.85,6.98-11.71,11.83-16.48,1.95,5.5,4.31,10.85,7.05,16,3.06-9.46,7.29-18.55,12.55-26.99"/>
          <path class="cls-2" d="M423.31,65.85c18.88,6.51,34.27,21.56,42.92,39.56,8.65,18,10.86,38.72,8.1,58.5-2.76,19.78-10.29,38.68-20.23,56.01"/>
          <path class="cls-2" d="M375.14,65.03c-15.51,10.32-27.75,25.36-35.01,42.5-2.07,4.88-3.73,9.94-4.95,15.1"/>
          <path class="cls-2" d="M371.13,154.88c-3.71-4.77-7.43-9.55-11.14-14.32-.44-.56-.89-1.15-1.02-1.85-.37-1.97,1.91-3.43,3.9-3.62,3.65-.36,7.42,1.63,9.19,4.84.78,1.42,1.19,3.03,1.96,4.46s2.08,2.74,3.7,2.84"/>
          <path class="cls-2" d="M382.49,144.8c8.74-1.09,14.03-11.35,22.72-12.79,2.61-.43,5.91.49,6.52,3.07.31,1.34-.23,2.76-1.1,3.83s-2.04,1.83-3.19,2.58c-4.23,2.76-8.46,5.52-12.69,8.29"/>
          <path class="cls-2" d="M411.32,140.37c2.6,2.21,2.35,6.53.39,9.32s-5.14,4.44-8.19,5.97"/>
          <path class="cls-2" d="M399.7,169.09c-2.68,11.78-11.94,19.16-21.51,25.52"/>
          <path class="cls-2" d="M412.32,151.4c1.14,1.63,1.07,3.89.25,5.71s-2.29,3.25-3.84,4.51c-5.83,4.72-13.47,7.4-20.92,6.56-7.46-.84-14.57-5.46-17.68-12.28"/>
          <path class="cls-2" d="M378.39,141.61l2.56,1.82c-5-3.54-9.74-7.46-14.94-10.7s-10.97-5.81-17.08-6.3"/>
          <path class="cls-2" d="M351.11,119.88c13.31.9,25.98,8.55,32.97,19.91"/>
          <path class="cls-2" d="M360.4,115.44c11.12,2.46,20.64,11.19,24.33,24.58,2.68-12.03,12.4-22.2,24.29-25.43"/>
          <path class="cls-2" d="M387.62,140.8c4.75-9.99,15.15-17.04,26.19-17.76"/>
          <path class="cls-2" d="M390.87,136.84c7.85-5.31,17.69-7.58,27.07-6.26"/>
          <path class="cls-2" d="M343.62,207.36c9.28,6.39,18.56,12.78,27.84,19.18,1.75,1.21,3.59,2.45,5.79,2.91,4.77.99,9.32-1.89,13.17-4.43,16.34-10.79,35.4-18.69,56.32-22.36,5.86,7.19,9.57,15.6,10.68,24.24"/>
          <path class="cls-2" d="M445.94,198.21c-8.51-15.35-7.78-35.38,1.82-50.07.74-1.13,1.57-2.27,2.77-2.91s2.85-.6,3.74.42.37,3.01-.98,3.15c-1.14.12-2.01-.98-2.53-2-3.06-5.98-2.36-13.69,1.73-19.02"/>
          <path class="cls-2" d="M343.62,210.31c4.29,68.01,15.43,135.71,32.48,201.72,9.49.85,19.11.61,28.52-.72"/>
          <path class="cls-2" d="M415.51,225.56c-.06,61.89-3.55,123.77-10.46,185.28"/>
          <path class="cls-2" d="M461.74,211.4c-6.98,64.12-18.82,127.71-35.39,190.05"/>
          <path class="cls-2" d="M408.08,400.95c6.05,1.69,12.46,2.07,18.67,1.11"/>
          <path class="cls-2" d="M377.46,411.95c-9.8,6.51-18.95,14.01-27.26,22.34,15.65,3.3,31.85,3.96,47.72,1.95,1.79-.23,3.71-.56,4.96-1.85,1.35-1.41,1.53-3.54,1.63-5.49.33-6.25.66-12.5.99-18.75"/>
          <path class="cls-2" d="M430.74,403.39c8.82,4.75,17.06,10.22,24.54,16.3-14.09,2.41-28.68,2.89-42.97,1.42-1.61-.17-3.34-.41-4.47-1.35-1.22-1.03-1.38-2.58-1.47-4-.3-4.56-.59-9.12-.89-13.68"/>
        </g>
      </g>
      <g>
        <ellipse class="cls-5" cx="259.84" cy="52.81" rx="1.44" ry="1.62"/>
        <ellipse class="cls-5" cx="266.96" cy="52.81" rx="1.44" ry="1.62"/>
      </g>
      <ellipse class="cls-5" cx="121.84" cy="210.31" rx="1.44" ry="1.62"/>
      <g>
        <ellipse class="cls-5" cx="394.09" cy="30.56" rx="1.44" ry="1.62"/>
        <ellipse class="cls-5" cx="401.21" cy="30.56" rx="1.44" ry="1.62"/>
      </g>
      <g>
        <ellipse class="cls-5" cx="524.87" cy="120.97" rx="1.44" ry="1.62"/>
        <ellipse class="cls-5" cx="531.99" cy="120.97" rx="1.44" ry="1.62"/>
      </g>
    </g>
  </g>
</svg>