<?xml version="1.0" encoding="UTF-8"?>
<svg xmlns="http://www.w3.org/2000/svg" viewBox="0 0 590.34 356.45">
  <defs>
    <style>
      .cls-1 {
        fill: #fff;
      }

      .cls-2 {
        fill: none;
        stroke: #035dc4;
        stroke-linecap: round;
        stroke-linejoin: round;
        stroke-width: 4px;
      }

      .cls-3 {
        fill: #035dc4;
      }

      .cls-4 {
        fill: #8ed7f2;
      }
    </style>
  </defs>
  <g id="_レイヤー_2" data-name="レイヤー 2">
    <path class="cls-1" d="M584.65,244.89c-15.72-50.98-54.41-93.87-103.51-114.72-.37-.16-.76-.19-1.13-.13-1.1-.84-2.49-1.53-4.08-1.95-1.27-.34-2.53-.46-3.68-.4,4.43-15.41,6.17-31.32,5.16-47.33,4.34-4.05,8.43-7.88,9.85-13.3.93-3.53.07-7.71-2.18-10.64-1.09-1.42-2.43-2.45-3.92-3.04,4.39-12.6,1.94-27.48-6.29-37.99-8.28-10.58-22.27-16.56-35.63-15.23-13.37,1.33-25.9,9.94-31.93,21.95-.05.1-.08.19-.11.29-1.81.2-3.39.83-4.47,1.73.03-.06.04-.13.07-.19.51-.98.13-2.19-.85-2.7-.98-.51-2.19-.13-2.7.85-2.04,3.93-.07,8.61,2.81,11.02,1.97,1.65,4.31,2.53,6.55,3.05,0,.02-.02.04-.03.07-7.79,27.98-9.92,58-6.17,86.8,0,0,0,.02,0,.03-.41-.13-.86-.13-1.3.04-.1.04-.2.09-.29.15-.02,0-.05,0-.07,0-2.37,0-4.45.98-5.61,2.45-.49-.21-1.06-.22-1.58,0-6.57,2.91-10.74,10.24-10.16,17.35-36.48,6.09-68.08,33.3-79.51,68.49-4.41,8.88-7.78,17.81-10.13,26.55h-1.05c.24-6.91-1.22-14.18-4.19-21.48.17-.48.15-1.02-.08-1.52-18.28-38.35-55.28-67.46-96.82-76.3l-.1-8.61c-.01-1.1-.91-1.98-2-1.98h-.02c-.56,0-1.05.24-1.41.61-.86-2.27-2.02-4.02-3.36-5.02.57-.67.64-1.66.12-2.42-.47-.68-1.28-.97-2.03-.82-.89-23.1-4.31-46.13-10.19-68.48,2.46-2.18,4.45-4.89,5.73-7.95.43-1.02-.05-2.19-1.07-2.62-1.02-.43-2.19.05-2.62,1.07-.12.29-.27.57-.41.85-.13-.18-.29-.36-.46-.53.24-.3.39-.67.42-1.08.67-8.95-4.74-18.35-13.45-23.39-6.9-3.99-15.8-5.61-26.46-4.8-3.74.29-8.1.86-12.02,2.96-4.36,2.34-7.26,6.26-7.76,10.48-.1.86.37,1.66,1.11,2.02-.36.35-.65.73-.84,1.14-.63-.18-1.33-.06-1.86.4-11.28,9.72-15.66,26.88-10.41,40.81.14.38.39.68.7.9-.41,2.26-.27,4.65.52,6.87,1.38,3.89,4.5,7.14,8.52,8.95-1.6,10.34-2.35,20.84-2.26,31.32l-5.86,1.6c-.74.2-1.29.81-1.44,1.56-1.05,5.47-2.13,11.11-.2,16.39-19.24,7.32-37.78,21.03-56.59,41.84-21.07,23.31-35.07,47.14-41.62,70.83-8,28.93-4.77,58.39,8.85,80.82.38.62,1.04.96,1.71.96.34,0,.68-.09.99-.27.27.21.55.4.83.58-.45.96-.07,2.12.88,2.62,7.77,4.04,16.61,6.14,25.51,6.14,2.57,0,5.15-.18,7.7-.53.44-.06.82-.27,1.13-.57,9.11,9.61,22.17,15.01,35.31,15.01,3.63,0,7.26-.44,10.81-1.28.39.04.77.08,1.16.11.6.04,1.26.08,1.95.08,1.61,0,3.4-.18,5.1-.86,2.55-1.01,4.43-3.03,5.06-5.35.44-.05.89-.12,1.34-.25,2.46-.72,4.18-2.81,4.19-5.09,0-.25-.05-.49-.14-.71,1.19-.12,2.36-.52,3.36-1.42,2.44-2.19,2.16-5.97.48-8.37-1.51-2.16-3.84-3.36-5.71-4.33l-14.4-7.45c2.53-1.16,4.56-3.89,3.84-6.88-.59-2.45-2.75-3.85-4.32-4.68-3.96-2.11-8.42-3.42-12.89-3.78-.31-.02-.6.03-.87.13-.9-4.17-2.25-8.26-4.01-12.17h293.78c17.54.65,35.19,1.02,52.47,1.37,12.87.26,26.15.54,39.18.93l1.55.06s.06,0,.08,0c.06,0,.13,0,.19,0,.08,0,.17,0,.25,0,1.12.03,2.02-.83,2.06-1.93,0-.15,0-.29-.03-.43h4.62c.33.13.66.24,1,.35-.51.74-.81,1.62-.81,2.57,0,.49.1.95.24,1.39-.05.28-.06.58.02.87,3.67,14.43,15.83,27.08,31.74,33.02,7.81,2.92,16.52,4.38,26.04,4.38,6.35,0,13.06-.65,20.11-1.95.79-.15,1.39-.75,1.57-1.48,1.66-.44,3.3-.99,4.92-1.64,4.06-1.65,7.73-3.89,11-6.6.11.37.32.71.63.98.38.32.83.47,1.29.47.57,0,1.13-.24,1.53-.71,22.48-26.61,13.81-65.45,9.05-80.91Z"/>
  </g>
  <g id="_レイヤー_14" data-name="レイヤー 14">
    <g>
      <path class="cls-2" d="M121.35,47.98c2.37,4.89,7.16,8.52,12.5,9.49s11.11-.75,15.04-4.5c1.49-1.41,2.5-4.27.66-5.17-1.55-.76-3.3,1.3-2.87,2.98s2.09,2.72,3.69,3.38c4.83,1.99,10.45,1.98,15.28-.02s8.81-5.96,10.83-10.78"/>
      <path class="cls-2" d="M119.76,66.31c-3.27-2.63-8.46-2.2-11.54.65s-4,7.65-2.6,11.61,4.88,7.01,8.85,8.35"/>
      <path class="cls-2" d="M117.17,79.95c0-2.75-2.39-5.27-5.13-5.43"/>
      <path class="cls-2" d="M119.18,65.39c.31-4.79,1.76-9.5,4.21-13.63"/>
      <path class="cls-2" d="M170.59,52.28c6.06,22.92,9.51,46.53,10.28,70.23"/>
      <path class="cls-2" d="M112.61,127.84c22.21,10.88,50.24,8.77,70.57-5.31"/>
      <path class="cls-2" d="M114.35,87.67c-2.11,13.29-2.82,26.8-2.12,40.24"/>
      <path class="cls-2" d="M136.08,74.76c.47,3.97,3.35,7.55,7.13,8.86s8.26.28,11.08-2.54"/>
      <path class="cls-2" d="M104.4,70.75c-4.99-13.23-.87-29.36,9.84-38.59"/>
      <path class="cls-2" d="M116.51,27.32c.45-3.85,3.3-7.12,6.72-8.95s7.36-2.43,11.22-2.73c8.68-.66,17.77.17,25.3,4.53s13.1,12.84,12.46,21.51"/>
      <path class="cls-2" d="M110.86,121.33l-6.2,1.7c-1.14,5.95-2.28,11.91.54,17.16-22.68,8.08-41.66,24.19-57.81,42.05-18.32,20.27-33.9,43.68-41.18,70.02-7.28,26.34-5.55,55.89,8.63,79.25"/>
      <path class="cls-2" d="M19.53,262.96c6.73-2.73,14.19-5.43,21.07-3.12,2.49.84,4.83,2.38,6.14,4.66s1.41,5.33-.16,7.44-4.9,2.82-6.96,1.2c-2.56-2.01-1.92-6.42.56-8.53s6.04-2.41,9.28-2.1c6.91.68,13.55,3.78,18.51,8.63"/>
      <path class="cls-2" d="M69.4,278.61c7.99,8.43,13.39,19.27,15.32,30.72-9.1,1.95-16.92,5.3-22.81,10.76-5.9,5.46-9.83,13.01-11.42,19.96-10.9,1.51-22.25-.33-32.02-5.41"/>
      <path class="cls-2" d="M189.5,130.22c.04,3.41.08,6.81.12,10.22,41.67,8.33,78.72,37.18,97,75.53"/>
      <path class="cls-4" d="M330.2,313.78v-2.44c0-.13,0-.25.01-.38,1.65-29.64,3.34-59.28,5.03-88.92.25-4.31-3.55-7.75-7.82-7.06-45.08,7.27-90.94,14.84-136.95,21.55-3.35.49-5.81,3.37-5.78,6.75.3,32.23-.32,63.92-1.5,95.99-.16,4.41,3.86,7.8,8.17,6.87,46.11-9.94,92.22-19.88,138.36-29.73"/>
      <path class="cls-4" d="M185.42,343.48c-25.72-9.73-51.48-19.43-78.39-28.25-1.42-.47-1.41-2.48.03-2.91l78.92-23.54c.99-.29,1.97.45,1.97,1.48l-.45,51.81c0,1.06-1.07,1.79-2.07,1.42Z"/>
      <path class="cls-2" d="M51.78,338.37c11.31,13.29,30.6,19.18,47.41,14.49"/>
      <path class="cls-2" d="M77.86,344.98c6.11,4.83,13.69,7.77,21.45,8.32,2.08.15,4.24.12,6.18-.65s3.64-2.41,3.99-4.47"/>
      <path class="cls-2" d="M85.22,338.85c6.97,3.86,14.57,6.59,22.4,8.06,1.47.28,3.02.51,4.45.09s2.74-1.67,2.75-3.17"/>
      <path class="cls-2" d="M90.04,329.46c6.78,5.14,14.55,8.96,22.76,11.21,1.99.55,4.37.92,5.91-.46,1.56-1.4,1.38-4.02.18-5.74s-3.13-2.74-4.99-3.7c-7-3.62-14-7.24-21.01-10.87,2.07.34,4.25.68,6.24,0s3.68-2.73,3.19-4.78c-.38-1.58-1.88-2.62-3.31-3.39-3.74-1.99-7.89-3.21-12.11-3.55"/>
      <path class="cls-2" d="M401.82,124.99c4.01,10.45,15.39,17.57,26.54,16.61-4.53,7.27-10.33,13.75-17.07,19.03-2.67-9.89-5.34-19.78-8.01-29.67"/>
      <path class="cls-2" d="M465.89,128.94c-8.5,9.08-21.13,14.14-33.55,13.44,2.17,6.82,4.35,13.64,6.52,20.46,12.21-8.84,22.79-19.91,31.06-32.51"/>
      <path class="cls-2" d="M394.36,127.56c-6.36,2.81-10.2,10.4-8.7,17.19-36.84,5.35-69.44,33.3-80.35,68.9"/>
      <path class="cls-2" d="M480.32,132.03c48.4,20.56,86.89,63.22,102.38,113.47,8.15,26.43,9.19,57.9-8.66,79.03"/>
      <path class="cls-2" d="M478.69,298.86c3.75,14.76,16.23,26.31,30.5,31.64s30.1,5.1,45.08,2.33"/>
      <path class="cls-2" d="M501.71,260.54c9.01-2.78,18.2-5.6,27.63-5.53s19.32,3.48,24.97,11.03c1.56,2.09,2.8,4.66,2.36,7.23s-3.2,4.8-5.64,3.87c-2.35-.89-3.01-4.19-1.81-6.39s3.67-3.42,6.1-4.03c8.24-2.09,17.62,1.77,22,9.05"/>
      <path class="cls-2" d="M401.01,23.04c-1.48,2.84-.13,6.52,2.32,8.57s5.73,2.8,8.91,3.18c9.61,1.16,19.39-.42,29,.7s19.84,5.93,23.04,15.06"/>
      <path class="cls-2" d="M409.08,23.03c5.75-11.44,17.6-19.59,30.34-20.85s25.96,4.38,33.85,14.47c7.89,10.09,10.19,24.28,5.9,36.34"/>
      <path class="cls-2" d="M410.5,36.79c-7.76,27.88-9.85,57.31-6.11,86.01"/>
      <path class="cls-2" d="M468.47,63.02c2.04-3.95,5.19-8.22,9.64-8.21,5.3.02,8.52,6.64,7.18,11.77s-5.59,8.9-9.97,12.99c1.16,16.58-.72,33.36-5.51,49.27"/>
      <path class="cls-2" d="M471.12,73.34c.45-4.39,3.32-8.45,7.31-10.34"/>
      <path class="cls-2" d="M429.15,71.94c-.16-2.19,2.01-4.09,4.2-4.12s4.21,1.46,5.34,3.34,1.54,4.11,1.77,6.29c.14,1.32.21,2.69-.25,3.93s-1.58,2.33-2.91,2.35c-1.63.03-2.85-1.44-3.69-2.84-1.7-2.84-2.92-5.97-3.58-9.22"/>
      <path class="cls-2" d="M482.59,294.07c-12.44-3.11-23.57-11.18-30.38-22.04-.73-1.17-1.43-2.67-.73-3.87,1.02-1.75,3.68-.99,5.46-.03,4.93,2.66,9.85,5.32,14.78,7.99"/>
      <path class="cls-2" d="M457.64,266.18c-2.22-1.31-4.55-2.72-5.78-4.99s-.83-5.63,1.49-6.75c1.8-.87,3.94-.12,5.76.71,6.26,2.82,12.16,6.43,17.53,10.7"/>
      <path class="cls-2" d="M457.85,252.15c-.59-1.89,1.33-3.81,3.3-3.98s3.84.83,5.54,1.83c5.73,3.35,11.28,7.02,16.61,10.98"/>
      <path class="cls-2" d="M463.41,248.76c3.08-5.27,10.92-5.3,16.43-2.66s10.05,7.14,15.8,9.19"/>
      <path class="cls-2" d="M480.43,295.09c7.46-2.29,13.94-7.6,17.66-14.46s4.62-15.19,2.47-22.69"/>
      <path class="cls-2" d="M345.7,290.68c40.76,2.57,82.76,2.57,124.02,3.85-3.18-.12-6.37-.25-9.55-.37,3.02.13,6.04.25,9.05.37"/>
      <path class="cls-2" d="M92.22,286.27c27.97.13,55.94.36,83.91.7"/>
      <path class="cls-2" d="M182.48,291.97c.71,15.77,1.42,31.53,2.13,47.3"/>
      <g>
        <ellipse class="cls-3" cx="143.04" cy="64.87" rx="2.14" ry="2.75"/>
        <ellipse class="cls-3" cx="152.73" cy="64.87" rx="2.14" ry="2.75"/>
      </g>
      <g>
        <ellipse class="cls-3" cx="427.5" cy="55.75" rx="2.14" ry="2.75"/>
        <ellipse class="cls-3" cx="437.18" cy="55.75" rx="2.14" ry="2.75"/>
      </g>
    </g>
  </g>
</svg>