<?xml version="1.0" encoding="UTF-8"?>
<svg xmlns="http://www.w3.org/2000/svg" viewBox="0 0 569.89 419.32">
  <defs>
    <style>
      .cls-1 {
        fill: #fff;
      }

      .cls-2 {
        fill: none;
        stroke: #035dc4;
        stroke-linecap: round;
        stroke-linejoin: round;
        stroke-width: 4px;
      }

      .cls-3 {
        opacity: .84;
      }

      .cls-4 {
        fill: #8ed7f2;
      }
    </style>
  </defs>
  <g id="_レイヤー_2" data-name="レイヤー 2">
    <g>
      <path class="cls-1" d="M158.93,339.54c-2.52-1.81-5.5-2.77-8.1-3.54-15.67-4.6-31.97-6.36-48.48-5.25-2.51-40.67-5.18-81.68-7.78-121.44,8.51-9.17,15.82-19.52,21.51-30.55.11-.22.19-.46.21-.71.15-1.4.21-2.8.23-4.21.21.07.43.12.66.12.62,0,1.23-.29,1.62-.82,6.6-9.06,12.64-18.31,18-27.53,1.03-1.01,1.98-2.13,2.81-3.38.41-.62.79-1.26,1.13-1.92.26-.19.49-.44.63-.76,3.42-7.43,2.73-15.76-1.88-22.86-4.48-6.89-12.74-12.64-22.65-15.77-3.8-1.2-13.43-3.59-20.73.11-.98.5-1.37,1.68-.89,2.67-.72.51-1.41,1.07-2.07,1.67-.73-.23-1.55-.03-2.09.58C56.85,144.61,30.18,189.23,11.77,238.56c-.27.71-.09,1.47.38,2-.08.16-.15.32-.23.48-.31.48-.61.98-.86,1.5-.2.41-.23.86-.14,1.28-.23.88-.37,1.8-.44,2.73-.8.32-1.34,1.14-1.25,2.05.5,4.87,3.24,9.37,7.34,12.05.73.48,1.5.89,2.29,1.24,2.13,1.1,4.53,1.73,7.08,1.73,3.44,0,6.61-1.15,9.19-3.06.22.08.46.12.69.12.55,0,1.09-.22,1.49-.66,1.28-1.42,2.24-3.12,2.88-4.96.18.05.37.09.55.09.47,0,.94-.16,1.32-.5,13.61-12,25.52-23.23,36.27-34.21.06.32.19.63.41.89.4.48.97.72,1.54.72.45,0,.9-.15,1.27-.46.42-.35.83-.71,1.25-1.06,2.34,36.69,4.74,74.4,6.98,111.76-15.96.9-31.66,5.65-45.44,13.76-7.98,4.7-11.99,9.8-12.27,15.61-.26,5.48,3.26,11.03,8.96,14.16,4.77,2.62,10.12,3.34,15.64,3.91,9.77,1.01,18.63,1.51,26.83,1.51,9.04,0,17.28-.61,25.08-1.84,18.71-2.94,35.34-9.76,48.11-19.7,1.87-1.46,7.56-5.89,7.2-11.9-.18-3.12-2-6.14-4.98-8.28Z"/>
      <path class="cls-1" d="M565.6,246.72s-.02-.03-.04-.05c-49.81-54.03-125.54-71.46-188.44-43.37-.02.01-.04.03-.07.04-.06.03-.12.07-.19.11-.05.03-.1.07-.15.1-.05.04-.09.08-.14.12-.05.05-.1.1-.15.15-.02.02-.04.03-.05.05-.11.14-.23.29-.34.43-.02-.2-.04-.4-.06-.59.32-.04.64-.14.92-.34.88-.64,1.05-1.84.4-2.69-27.46-35.74-81.89-51.34-135.44-38.83-.56.13-1,.48-1.26.93-.72-.21-1.54,0-2.06.59-2.78,3.15-5.56,6.31-8.35,9.47-.45.08-.88.28-1.19.65-6.02,7.06-12.05,14.14-18.09,21.23-26.16,29.7-52.36,59.51-77.91,88.58l-.69.79c-.42.48-.55,1.11-.42,1.68-.95.35-1.48,1.34-1.2,2.31.07.23.18.43.31.61-1.22,1.43-2.44,2.87-3.66,4.3l-.67.79c-.41.48-.52,1.09-.37,1.65-.93.37-1.43,1.35-1.13,2.28.32.98,1.43,1.53,2.47,1.22,42.46-12.73,84.09-6.97,113.27,13.83,12.74,3.96,27.11,11.94,32.7,24.22.52.38,1.21.52,1.86.28,2.39-.86,4.8-1.67,7.23-2.43,65.95-10,140.33,9.45,186.99,49.32.38.32.84.48,1.3.48.03,0,.06,0,.09,0,.1.45.35.87.77,1.16.35.25.76.37,1.16.37.61,0,1.22-.28,1.6-.79,28.18-37.81,57.32-76.89,86.24-115.54l6.03-7.42c3.87-4.76,3.23-11.63-1.31-15.67Z"/>
    </g>
  </g>
  <g id="_レイヤー_14" data-name="レイヤー 14">
    <g class="cls-3">
      <path class="cls-4" d="M213.33,28.72c-7.37-22.05-33.01-30.96-55.91-27.49-26.26,3.98-45.65,23.64-60.05,42.95-14.89,19.97-32.4,47.26-17.94,71.75l3.94,2.77c.59-1.57,1.41-3.04,2.31-4.45.28-.44.58-.85.79-1.33.17-.39.36-.75.59-1.11.55-.85,1.15-1.69,1.83-2.43,1.32-1.42,2.58-2.82,4.12-4.01.68-.53,1.41-.96,2.16-1.39.69-.4,1.31-.89,2.1-1.09,1.03-.26,2.09-.41,3.13-.61.52-.1,1.01-.28,1.53-.31.55-.03,1.08-.12,1.62-.21.98-.16,1.96-.16,2.94-.28.56-.07,1.12-.15,1.68-.22.48-.05,1.04-.02,1.5-.14.54-.15,1.01-.3,1.58-.34.48-.03.96-.02,1.44-.02,1.07,0,2.21.05,3.23.42.47.17.95.32,1.43.48.37.13.66.35,1.03.47.94.29,1.88.63,2.77,1.05,1.02.48,2.01,1,3.04,1.46.85.38,1.59.96,2.46,1.31.52.21.86.68,1.26,1.05.38.35.77.72,1.23.96.41.22.85.36,1.25.6.36.21.7.46,1.04.69.38.25.73.46,1.07.76.35.31.74.57,1.15.8.45.25.88.43,1.24.8.32.32.63.63.95.95.68.68,1.32,1.29,1.7,2.18.32.75.7,1.5,1.12,2.2.48.81.84,1.65,1.27,2.48.4.78.81,1.57,1.05,2.42.14.48.22.97.26,1.47.04.51-.06.93-.15,1.44-.17.99-.21,2.01-.22,3.01-.03,1.99-.25,3.97-.73,5.91-.28,1.12-.58,2.24-.84,3.36-.23.99-.43,1.94-.83,2.88-.7,1.63-1.71,3.25-2.77,4.68-1.18,1.59-1.92,3.44-2.84,5.18-.48.9-1.1,1.71-1.76,2.5l1.03.73c2.77,1.54,5.85,2.55,9.02,3.05,30.41,4.82,47.39-27.72,57.23-48.69,6.24-13.29,11.18-27.17,14.54-41.35,2.87-12.1,4.49-25.2.45-37.3Z"/>
      <path class="cls-2" d="M139.77,151.17c30.43,4.48,47.42-25.78,57.27-45.28,6.24-12.36,11.19-25.26,14.55-38.45,2.7-10.61,4.3-22.04,1.09-32.74"/>
      <path class="cls-2" d="M12.6,242.82c3.41-7.21,13.69-10.06,20.33-5.64s7.97,15,2.63,20.93"/>
      <path class="cls-2" d="M24.02,247.01c-18.45,15.95-26.43,43-19.61,66.41,1.44,4.96,3.62,9.91,7.53,13.28s9.9,4.74,14.35,2.13,5.84-9.77,1.89-13.1c-3.14-2.64-8.15-1.89-11.34.69s-4.92,6.54-6.22,10.43c-11.12,33.34,4.62,73.54,35.42,90.47"/>
      <path class="cls-2" d="M10.95,247.82c.43,4.25,2.87,8.24,6.44,10.58s8.21,2.96,12.28,1.65"/>
      <path class="cls-2" d="M84.19,214.18c2.66,41.79,5.33,83.58,7.82,125.39l.58,5.52"/>
      <path class="cls-2" d="M92.27,208.43c2.83,43.34,5.66,86.67,8.31,130.02.2,1.91.4,3.82.6,5.73"/>
      <path class="cls-2" d="M13.37,238.69c18.08-48.46,44.87-93.52,78.9-132"/>
      <path class="cls-2" d="M116.91,171.37c6.9-9.48,13.33-19.32,19.13-29.51"/>
      <path class="cls-2" d="M40.48,252.58c13.79-12.16,27.22-24.74,39.95-38.01"/>
      <path class="cls-2" d="M80.92,218.36c5.44-8.66,7.42-19.42,5.44-29.45s-7.91-19.22-17.03-25.12c10.03-8.5,20.06-17.01,30.29-25.7,10.48,9.96,15.9,25,14.41,39.15-8.35,16.17-19.99,30.63-34.01,42.23"/>
      <path class="cls-2" d="M96.73,102.23c5.41-2.74,13.12-1.91,19.23.02,9.51,3,17.33,8.42,21.58,14.95s4.88,14.12,1.74,20.94"/>
      <path class="cls-2" d="M275.37,338.8c67.05-24.84,147.31-9.49,200.45,38.35"/>
      <path class="cls-2" d="M276.58,337.29c68.98-12.92,147.94,7.36,197.2,50.65"/>
      <path class="cls-2" d="M273.47,338.03c-25.42-46.28-82.23-65.91-141.89-49.03"/>
      <path class="cls-2" d="M273.63,336.35c-33.55-37.59-92.47-52.79-147.15-37.98"/>
      <path class="cls-2" d="M377.4,199.86c-27.36-36.62-81.37-52.49-134.88-39.63"/>
      <path class="cls-2" d="M379.67,203.2c62.96-28.91,138.32-11.04,188.23,44.62"/>
      <path class="cls-2" d="M276.34,337.61c34.41-44.82,68.83-89.65,103.32-134.41"/>
      <path class="cls-2" d="M132.8,286.69c35.78-41.86,71.55-83.72,107.41-125.52"/>
      <path class="cls-2" d="M479.89,375.51c29.31-40.43,58.62-80.87,88-121.25"/>
      <path class="cls-2" d="M475.82,389.51c29.31-40.43,58.62-80.87,88-121.25"/>
      <path class="cls-2" d="M90.48,333.67c-15.92.76-31.63,5.45-45.37,13.54-5.39,3.17-10.99,7.74-11.28,13.98-.24,5.14,3.41,9.84,7.93,12.31s9.76,3.15,14.88,3.68c17.09,1.76,34.42,2.35,51.39-.32,16.97-2.67,33.64-8.75,47.19-19.3,3.3-2.57,6.68-6.02,6.44-10.2-.16-2.73-1.93-5.17-4.15-6.77s-4.87-2.47-7.5-3.24c-15.85-4.66-32.57-6.35-49.04-5.09"/>
      <path class="cls-2" d="M334.01,287.14c10.89-14.79,32.2-22.69,51.5-19.09,4.99.93,10.02,2.68,13.41,6.11,3.38,3.43,4.64,8.87,1.84,12.7s-10.07,4.55-12.9.73c-3.37-4.56,1.29-10.44,6.02-13.87,13.72-9.96,30.88-16,48.46-17.06,5.2-.31,10.62-.16,15.32,1.88s8.47,6.38,8.12,11.07-5.98,8.82-10.86,7.19c-4.6-1.54-6.17-7.13-4.34-11.23s6.02-6.93,10.24-9.18c20.93-11.14,47.68-12.91,70.2-4.65"/>
    </g>
  </g>
</svg>