<?xml version="1.0" encoding="UTF-8"?>
<svg id="_レイヤー_14" data-name="レイヤー 14" xmlns="http://www.w3.org/2000/svg" viewBox="0 0 579.18 594.49">
  <defs>
    <style>
      .cls-1 {
        fill: #fff;
      }

      .cls-2 {
        stroke-width: 9px;
      }

      .cls-2, .cls-3 {
        fill: none;
        stroke: #035dc4;
        stroke-linecap: round;
        stroke-linejoin: round;
      }

      .cls-3 {
        stroke-width: 6px;
      }

      .cls-4 {
        fill: #8ed7f2;
      }
    </style>
  </defs>
  <path class="cls-1" d="M281.22,44.22s-.07-.05-.1-.07c1.08-15.2-26.22-33.14-62.63-40.74-37.71-7.87-70.9-1.66-74.14,13.86-.03.12-.03.24-.05.36-.26.41-.44.87-.47,1.39-1.6,22.67-15.52,42.72-28.93,59.34-2.3,2.85-4.64,5.69-6.99,8.53-12.34,14.95-25.11,30.41-32.26,48.85-4.05,10.45-7.88,26.3-3.08,42.46,4.09,13.8,14.31,24.83,26.56,29.07-17.8,40.87-32.73,81.86-44.52,122.31-.23.79-.13,1.65.29,2.36,20.7,35.23,32.53,76.92,33.32,117.39,0,.18.03.35.06.52-.44,1.45-.87,2.89-1.27,4.34-.44,1.6.49,3.25,2.09,3.69.27.07.54.11.8.11,1.31,0,2.52-.87,2.89-2.2,7.47-26.91,20.85-53,38.69-75.44,17.84-22.45,40.23-41.37,64.76-54.73,1.21-.66,1.82-2.06,1.47-3.39-8.11-31.08-8.24-63.41-.72-94.2,11.48-.11,22.76-4.65,32.7-13.18,9.13-7.84,16.64-18.69,21.14-30.56,7.02-18.53,8.13-38.58,9.2-57.96.24-4.3.48-8.74.79-13.07,1.46-20.62,5.13-46.62,20.73-64.8,1.08-1.26.94-3.15-.32-4.23Z"/>
  <g>
    <path class="cls-4" d="M576.75,216.55c-58.98,18.24-121.7,31.2-185.1,38.03-19.45,2.1-39.62,3.81-56.75,13.28-7.88,4.35-15.39,11.15-16.49,20.08-1.08,8.77,4.53,17.29,11.86,22.22s16.17,7.01,24.78,8.98c-4.73,13.11-17.86,19.34-30.16,23.41-49.48,16.38-103.83,16.04-151.72,36.62-34.88,14.99-64.94,40.96-84.84,73.28l1.07.11c.95-3.02,3.47-5.46,7.58-5.44.47,0,.94.02,1.41.02,30.4-18.94,70-18.01,106.45-20.19,52.07-3.12,103.63-14.68,152.06-34.08,29.31-11.74,59.44-26.66,90.78-22.83,18.1,2.21,34.88,10.59,52.76,14.15,27.1,5.39,56.34-1,78.71-17.22-.81-50.15-1.62-100.29-2.43-150.44Z"/>
    <g>
      <path class="cls-3" d="M210,185.06c-21.59,42.07-27.58,91.93-15.35,138.8-50.7,27.61-89.45,76.37-104.9,132"/>
      <path class="cls-3" d="M120.12,169.26c-25.15,52.1-46.47,106.06-62.78,162.02,21.45,36.49,32.96,78.76,33.73,118.85,1.27-43.96,7.23-87.79,17.86-130.02-6.54-4.12-10.59-11.91-10.2-19.62.29-5.76,3.68-11.94,9.34-13.06,5.2-1.03,10.53,2.81,12.32,7.8,1.79,4.99.57,10.65-2.01,15.28s-6.42,8.4-10.19,12.12"/>
      <path class="cls-3" d="M112.4,184.22c-1.47-6.86,2.39-14.04,8-18.25s12.68-5.96,19.62-7.02c17.44-2.68,35.45-1.64,52.47,3.02,6.58,1.8,13.37,4.39,17.57,9.77s4.5,14.28-1,18.31"/>
    </g>
    <path class="cls-3" d="M96.71,147.7c18.64-20.05,47.27-30.31,74.4-26.65s52.03,21.12,64.7,45.39"/>
    <path class="cls-3" d="M103.12,206.23c-13.44-3.13-23.9-14.8-27.82-28.02-3.93-13.22-1.99-27.66,3-40.52,8.3-21.42,24.36-38.7,38.79-56.58,14.42-17.88,27.97-38.1,29.59-61.02"/>
    <path class="cls-3" d="M279.12,47.36c-15.45,18-19.78,42.88-21.45,66.54-1.67,23.66-1.39,48-9.8,70.18s-28.34,42.15-52.05,41.82"/>
    <path class="cls-2" d="M93.38,457.15c8.56-12.69,29.48-12.33,40.02-1.22,10.54,11.11,11.26,29.08,4.83,42.98s-18.77,24.21-31.91,32.07c-23.31,13.94-50.37,21.51-77.53,21.7-9.12.06-20.12-1.98-23.43-10.48-3.95-10.16,6.34-20.02,15.93-25.2,40.48-21.84,91.47-22.96,132.87-2.93,8.43,4.08,16.88,9.4,21.11,17.76s2.42,20.34-5.94,24.57-20.55-5.17-16.48-13.61c2.32-4.8,8.02-6.75,13.18-8.07,29.58-7.55,60.57-9.55,90.87-5.86,8.66,1.06,17.46,2.64,25.09,6.89s13.96,11.63,14.93,20.31-4.75,18.18-13.35,19.64c-8.61,1.46-17.72-7.65-14.82-15.88,1.75-4.96,6.68-8,11.42-10.27,26.1-12.5,56.5-13.67,84.97-8.52,9.85,1.78,19.91,4.46,27.7,10.75s12.76,17.01,9.67,26.53-16.03,15.24-23.98,9.15c-7.5-5.75-6.51-18.18-.24-25.25,6.27-7.07,15.95-9.93,25.23-11.72,41.56-8.01,85.94-.39,122.44,21.03"/>
  </g>
</svg>