<?xml version="1.0" encoding="UTF-8"?>
<svg xmlns="http://www.w3.org/2000/svg" viewBox="0 0 592.05 417.19">
  <defs>
    <style>
      .cls-1 {
        fill: #035dc4;
        stroke-miterlimit: 10;
      }

      .cls-1, .cls-2, .cls-3 {
        stroke: #035dc4;
      }

      .cls-4 {
        fill: #fff;
      }

      .cls-2, .cls-3 {
        fill: none;
        stroke-linecap: round;
        stroke-linejoin: round;
        stroke-width: 4px;
      }

      .cls-5 {
        fill: #8ed7f2;
      }

      .cls-3 {
        stroke-dasharray: 9 12 9 12 9 12;
      }
    </style>
  </defs>
  <g id="_レイヤー_2" data-name="レイヤー 2">
    <path class="cls-4" d="M592.02,344.22c-15.96-83.56-68.94-159.79-141.73-203.92-.23-.14-.48-.23-.73-.26-1.51-1.49-3.56-2.66-5.95-3.34-.03-.11-.06-.21-.11-.32l-5.81-12.85c-.42-.93-1.48-1.4-2.45-1.07-.19.06-.37.13-.56.19-2.39-8.09-5.87-15.75-10.36-22.86,1.34-2.93,2.48-6.13,3.4-9.55.19.1.39.17.61.21.1.02.2.02.3.02.97,0,1.83-.71,1.98-1.7,1.83-12.19,3.16-25.23.6-38.1-2.81-14.13-10.34-25.82-20.64-32.08-9.64-5.86-21.82-6.3-31.02-1.74-6.92-12.66-23.75-19.57-39.09-15.81-13.97,3.42-26.25,14.58-32.85,29.84-.26.61-.19,1.28.12,1.81-3.34,1.32-6.34,2.89-8.92,4.68-3.39.63-6.61,2.54-9.05,5.47-3.32,3.98-4.82,9.2-4.02,13.98,1.44,8.64,9.43,15.87,18.98,17.18.65.09,1.31.15,1.97.19,6.72,35.22,25.4,68.17,52.38,91.81.27.24.58.38.91.45-2.76,2.53-5.47,5.12-8.08,7.8-.39.4-.59.94-.57,1.5.39,7.78,3.84,15.33,9.46,20.72.35.33.79.51,1.23.54.71.59,1.48,1.15,2.31,1.66-11.99,12.49-22.53,26.3-31.36,41.14-4-7.5-10.93-13.49-19-16.16-.27-.09-.55-.12-.81-.09-4.03-4.98-9.32-7.95-14.7-8.2-.75-.05-1.42.34-1.79.94-1.8-1.07-3.71-1.84-5.66-2.25-.16-.03-.31-.04-.46-.04.06-.25.08-.52.03-.79-.94-5.99-2.48-12.85-6.72-18.34-4.54-5.87-11.87-8.77-18.03-7.21-2.07-11.88-8.06-23.04-17.12-31.16-2.83-2.54-5.96-4.8-8.98-6.98-5.61-4.05-10.9-7.88-14.44-13.31-4.8-7.37-5.94-17.65-3.11-28.19,2.55-9.52,7.77-18.23,13.36-27.05.3-.48.37-1.04.25-1.55.33-.38.52-.88.49-1.42-.06-1.1-1.02-1.95-2.11-1.88-65.14,3.73-132.5,7.69-197.65,11.51l-16.11.95c-1.1.06-1.94,1.01-1.88,2.11.03.46.21.86.49,1.18l-11.06,25.39c-3.09,7.09-6.29,14.43-7.51,22.36-1.4,9.1.23,17.49,4.61,23.63,3.86,5.4,9.53,8.77,15.02,12.04,4.32,2.57,8.4,4.99,11.69,8.33,7.67,7.8,9.54,20.89,4.64,30.65l-3.99.22c-.36.02-.69.14-.97.32-3.18-5.39-8.29-8.89-14.03-8.89C7.83,205.92,0,215.73,0,227.8c0,6.19,2.06,11.78,5.37,15.76-.57.37-.94,1-.92,1.73.99,38.15,1.97,72.61,3.93,107.98.04.75.5,1.41,1.18,1.72,15.45,6.86,33.68,15.27,51.85,25.54.31.18.65.26.98.26.08,0,.16-.02.24-.03.25.11.53.18.82.18.01,0,.02,0,.03,0,62.87-1.07,127.86-2.18,191.81-2.57.33.23.73.37,1.16.37.59,0,1.11-.26,1.48-.66,15.52,16.51,35.79,28.81,58.45,35.02,10.02,2.75,20.34,4.1,30.67,4.1,9.27,0,18.55-1.1,27.64-3.25h143.49c38.06,0,69.07-30.13,70.53-67.83.36.32.83.51,1.33.51.12,0,.25-.01.38-.04,1.08-.21,1.8-1.25,1.59-2.34Z"/>
  </g>
  <g id="_レイヤー_14" data-name="レイヤー 14">
    <g>
      <path class="cls-2" d="M306.87,61.93c4.37,39.21,23.86,76.54,53.54,102.54"/>
      <g>
        <path class="cls-5" d="M192.55,317.08c-1.02-1.16-2.01-2.33-2.97-3.54-.87-1.08-1.6-2.27-2.37-3.43-.09-.08-.19-.16-.29-.25-.59-.47-1.15-.99-1.65-1.55-.21-.23-.34-.51-.56-.74-.12-.13-.22-.25-.31-.39-2.57,1.31-4.33,3.97-4.33,7.05,0,4.38,3.55,7.92,7.92,7.92,2.57,0,4.84-1.23,6.29-3.12-.6-.64-1.16-1.32-1.73-1.97Z"/>
        <circle class="cls-5" cx="84.04" cy="266.36" r="7.92"/>
        <circle class="cls-5" cx="114.5" cy="262.36" r="7.92"/>
        <circle class="cls-5" cx="145.97" cy="257.74" r="7.92"/>
        <circle class="cls-5" cx="250.02" cy="247.65" r="7.92"/>
        <circle class="cls-5" cx="106.57" cy="296.81" r="7.92"/>
        <circle class="cls-5" cx="145.97" cy="292" r="7.92"/>
        <path class="cls-5" d="M184.96,281.58c-.54-.22-1.05-.48-1.58-.74-.57-.28-1.24-.52-1.76-.88-.36-.25-.64-.62-.99-.88-.48-.36-.98-.58-1.4-1.01l-4.03-4.03c-2.42,1.36-4.06,3.94-4.06,6.92,0,4.38,3.55,7.92,7.92,7.92,3.78,0,6.94-2.65,7.73-6.2-.58-.43-1.17-.84-1.83-1.11Z"/>
        <circle class="cls-5" cx="268.1" cy="271.49" r="7.92"/>
        <circle class="cls-5" cx="95.6" cy="330.09" r="7.92"/>
        <circle class="cls-5" cx="130.35" cy="327.37" r="7.92"/>
        <circle class="cls-5" cx="162.01" cy="322.16" r="7.92"/>
      </g>
      <path class="cls-2" d="M392.09,85.48c-.36-6.65,6.62-12.25,13.24-11.54,6.62.71,11.96,6.56,13.35,13.07s-.65,13.39-4.22,19"/>
      <path class="cls-2" d="M403.16,98.28c-2.61-5.13.27-12.25,5.7-14.13"/>
      <path class="cls-2" d="M419.79,96.57c5.86,8.2,10.31,17.39,13.12,27.07"/>
      <path class="cls-2" d="M301.08,39.1c-8.29.12-14.72,9.19-13.35,17.37s9.07,14.4,17.28,15.53,16.58-2.15,23.04-7.35c1.66-1.33,3.27-2.87,3.99-4.87s.32-4.55-1.44-5.74c-1.95-1.32-4.84-.38-6.18,1.57s-1.36,4.54-.72,6.81c1.96,6.99,9.45,11.26,16.69,11.78,7.24.52,14.33-1.9,21.18-4.3"/>
      <path class="cls-2" d="M309.47,31.65c5.84-13.51,17.19-25.19,31.49-28.69s31.17,2.79,37.49,16.08c1.14,2.39,1.88,5.36.41,7.56s-5.86,1.76-5.89-.88c-.01-1.19.84-2.21,1.7-3.04,9.04-8.69,24.17-8.9,34.89-2.39s17.27,18.47,19.72,30.77,1.24,25.02-.62,37.42"/>
      <path class="cls-2" d="M441.69,137.19c-1.94-4.28-3.87-8.57-5.81-12.85-31.11,10.31-59.76,27.98-82.53,51.28.37,7.26,3.6,14.34,8.84,19.38"/>
      <path class="cls-2" d="M244.28,279.42c-13.45-10.81-25.4-23.49-35.4-37.56-1.97-2.78-4.47-5.92-7.87-5.8-3.74.14-6.13,4.52-5.6,8.23s3.05,6.77,5.47,9.63"/>
      <path class="cls-2" d="M215.28,269.35c-10.34-10.1-20.68-20.2-31.02-30.3-2.24-2.19-5.07-4.56-8.13-3.87-2.78.63-4.43,3.73-4.39,6.58s1.36,5.51,2.65,8.06"/>
      <path class="cls-2" d="M206.87,275.95c-11.31-6.06-21.65-13.94-30.49-23.25-1.6-1.69-3.22-3.46-5.33-4.43s-4.91-.89-6.47.83c-1.44,1.59-1.42,4-1.07,6.12,1.03,6.17,4.23,11.96,8.65,15.53,5.18,5.68,11.24,10.55,17.94,14.32"/>
      <path class="cls-2" d="M245.73,279c-4.74-7.62-7.25-16.61-7.14-25.58.03-2.26.11-4.81-1.48-6.41-1.5-1.51-3.97-1.54-6-.89-4.91,1.58-8.35,6.86-7.81,11.99"/>
      <path class="cls-2" d="M312.56,291.13c10.79-35.97,30.77-69.14,57.52-95.5"/>
      <path class="cls-2" d="M449.26,142c72.42,43.91,124.91,119.4,140.8,202.58"/>
      <path class="cls-2" d="M267.31,292.65c17.8-2.78,36.77,3.39,49.53,16.11,2.69,2.68,5.2,5.83,5.77,9.58s-1.5,8.12-5.22,8.91c-4.27.9-8.26-3.54-8.24-7.91s2.93-8.22,6.27-11.02c9.92-8.31,25.08-9.7,36.35-3.33"/>
      <path class="cls-2" d="M218.75,332.57c-13.94-4.55-26.08-13.86-33.67-25.82"/>
      <path class="cls-2" d="M319.51,241.33c-1.83-5.38-3.71-10.84-7.05-15.44s-8.41-8.28-14.08-8.55"/>
      <path class="cls-2" d="M309.59,242.79c-1.42-5.61-2.87-11.3-5.78-16.3s-7.52-9.31-13.18-10.5"/>
      <path class="cls-2" d="M187.93,306.98c-5.99-.31-12-.62-17.89-1.75-2.18-.42-4.41-.98-6.14-2.37s-2.82-3.81-2.03-5.88c.96-2.54,4.04-3.43,6.71-3.88,6.71-1.11,13.54-1.51,20.33-1.19"/>
      <path class="cls-2" d="M301.85,247.42c-2.79-9.55-5.67-19.27-11.29-27.48-1.26-1.84-2.7-3.63-4.66-4.69s-4.55-1.21-6.31.15c-2.56,1.96-2.3,5.84-1.57,8.98,1.65,7.04,4.47,13.81,8.32,19.93"/>
      <path class="cls-2" d="M313.37,225.53c9.11,3.01,16.64,10.45,19.76,19.53"/>
      <path class="cls-2" d="M293.89,278.81c-6.45-3.31-12.55-7.28-18.2-11.83-2.62-2.11-5.2-4.42-6.7-7.43s-1.7-6.88.3-9.58c2.49-3.35,7.52-3.8,11.43-2.34,5.7,2.13,9.63,7.29,13.23,12.2"/>
      <path class="cls-2" d="M242.1,352.85c15.58,28.58,43.56,49.71,74.82,58.28s64.92,3.28,92.63-13.75c15.21-9.35,28.45-21.97,38.27-36.9"/>
      <path class="cls-2" d="M236.92,347.08l.2.2c-5.75-4.25-11.47-8.53-17.2-12.82,8.49-17.83,16.97-35.67,25.46-53.5,7.63,2.39,15.01,5.62,22.72,10.75-9.97,11.78-17.26,25.82-21.15,40.75"/>
      <path class="cls-2" d="M63.46,378.9c64.33-1.1,128.66-2.2,193-2.58v.38"/>
      <path class="cls-2" d="M197.37,226.32c26.54-1.73,53.06-4.2,79.67-4.22"/>
      <path class="cls-2" d="M175.25,227.53c2.54-.1,5.07-.22,7.61-.35"/>
      <path class="cls-2" d="M33.48,236.24c42.9-3.11,85.9-5.11,128.53-7.92"/>
      <path class="cls-2" d="M32.56,216.46c77.38-4.27,156.73-8.65,233.81-12.81"/>
      <path class="cls-2" d="M20.56,90.55c70.74-4.15,143.28-8.42,213.75-12.46"/>
      <path class="cls-3" d="M30.02,112.21c58.47-3.94,118.43-7.98,176.68-11.81"/>
      <path class="cls-3" d="M22.19,130.24c58.47-3.94,118.43-7.98,176.68-11.81"/>
      <path class="cls-3" d="M26.16,151.22c58.47-3.94,118.43-7.98,176.68-11.81"/>
      <path class="cls-3" d="M44.77,169.09c58.47-3.94,118.43-7.98,176.68-11.81"/>
      <path class="cls-3" d="M57.63,189.2c58.47-3.94,118.43-7.98,176.68-11.81"/>
      <path class="cls-2" d="M37.22,216.99c6.56-10.73,4.83-25.83-3.99-34.8-7.83-7.95-20.02-11.05-26.5-20.13-4.48-6.28-5.44-14.54-4.27-22.16s4.29-14.79,7.37-21.87c3.79-8.71,7.58-17.41,11.38-26.12"/>
      <path class="cls-2" d="M233.88,79.88c-5.51,8.7-10.93,17.66-13.6,27.61s-2.25,21.17,3.37,29.8c5.76,8.84,15.9,13.65,23.76,20.7,12.56,11.26,19.07,28.91,16.82,45.62"/>
      <path class="cls-2" d="M6.44,245.21c.93,35.92,1.93,71.92,3.93,107.92,18,8,35,16,52.02,25.62"/>
      <ellipse class="cls-2" cx="17.45" cy="227.77" rx="15.45" ry="19.88"/>
      <path class="cls-2" d="M29.48,242.16c29.9,37.97,44.9,87.97,35.05,135.96"/>
      <path class="cls-2" d="M266.04,201.66c6.36,3.07,10.66,9.99,10.6,17.06"/>
      <path class="cls-2" d="M265.88,189.71c5.98-1.8,12.61,1.43,16.43,6.37s5.35,11.26,6.32,17.43"/>
      <ellipse class="cls-1" cx="333.72" cy="105.45" rx="3.5" ry="4.65" transform="translate(-16.26 103.49) rotate(-17.21)"/>
    </g>
  </g>
</svg>