<?xml version="1.0" encoding="UTF-8"?>
<svg id="_レイヤー_14" data-name="レイヤー 14" xmlns="http://www.w3.org/2000/svg" viewBox="0 0 570.63 488.8">
  <defs>
    <style>
      .cls-1 {
        fill: #fff;
      }

      .cls-2 {
        stroke: #035dc4;
        stroke-width: 4px;
      }

      .cls-2, .cls-3 {
        fill: none;
        stroke-linecap: round;
        stroke-linejoin: round;
      }

      .cls-4 {
        fill: #035dc4;
      }

      .cls-3 {
        stroke: #8ed7f2;
        stroke-width: 6px;
      }
    </style>
  </defs>
  <g>
    <path class="cls-3" d="M119.08,174.74c12.16,2.26,24.33,4.52,36.49,6.78"/>
    <path class="cls-3" d="M117.27,84.53c20.86,15.24,41,31.44,60.36,48.54"/>
    <path class="cls-3" d="M199.44,82.79c5.57,7.01,11.13,14.02,16.7,21.03"/>
    <path class="cls-3" d="M244.7,3c3.41,29.92,9.34,59.55,17.71,88.48"/>
    <path class="cls-3" d="M316.15,53.1c-.63,10.51-1.26,21.03-1.89,31.54"/>
    <path class="cls-3" d="M361.52,89.91c14.11-26.89,32.68-51.43,54.71-72.32"/>
    <path class="cls-3" d="M401.06,105.68c5.86-7.95,13.53-14.56,22.26-19.17"/>
    <path class="cls-3" d="M427.99,147.32c20.74-14.29,44.35-24.4,69-29.57"/>
    <path class="cls-3" d="M436.26,173.53c6.8-1.88,13.59-3.77,20.39-5.65"/>
    <path class="cls-3" d="M81.32,229.36c24.45-6.84,49.54-11.4,74.83-13.6"/>
    <path class="cls-3" d="M125.7,261.88c7.98-4.44,15.96-8.87,23.94-13.31"/>
  </g>
  <g>
    <path class="cls-1" d="M570.62,310.36c-.05-.37-.2-.72-.43-1.01-4.85-5.98-12-5.17-17.75-3.12,2.83-2.85,5.21-6.16,6.96-9.79,2.07-4.29,1.87-8.19-.52-10.44-1.79-1.68-4.68-2.14-7.35-1.16-2.13.78-3.79,2.23-5.27,3.53-1.86,1.62-3.73,3.27-5.59,4.84,2.17-3.75,4.21-7.57,6.11-11.44,2.6-5.31,2.36-9.65-.66-11.91-1.96-1.46-4.85-1.59-7.38-.33-2.02,1.01-3.49,2.62-4.79,4.05-2.68,2.94-5.41,5.94-8.34,8.78,1.64-3.73,2.86-7.65,3.62-11.64.39-2.03.63-4.61-.9-6.65-1.95-2.59-5.64-2.7-8.12-1.49-2.31,1.13-3.88,3.18-5.15,4.82l-12.84,16.71c-.26-2.16-.71-4.3-1.38-6.38-1.28-3.99-3.32-6.42-6.07-7.22-2.79-.81-6.04.3-8.28,2.85-1.81,2.06-2.72,4.6-3.52,6.83-3.57,9.97-7.26,20.29-8.37,31.15-.67,6.55-.26,12.81,1.15,18.47-22.92,8.2-44.56,20.87-62.97,36.83-.41-1.57-.85-3.14-1.33-4.69.49-.49.71-1.22.51-1.93-6.84-24.74-19.61-47.82-36.93-66.76-.59-.64-1.49-.8-2.24-.49-.15-1.09-.62-2.13-1.4-2.91.91-3.27.17-7-2.23-9.5-2.52-2.63-6.49-3.5-9.92-2.5-.28-8.76-4.19-17.47-10.65-23.37-.82-.74-2.08-.69-2.83.13-.06.07-.11.14-.16.21,2.39-15,2.51-30.2.36-45.28-.06-.4-.23-.74-.47-1.03,7.67-.15,15.01-4.27,18.3-10.46,3.45-6.5,1.99-14.74-3.1-19.6,6.35-17.5,3.68-38.36-6.88-53.3-10.72-15.17-28.98-23.46-46.52-21.15-18.2,2.41-33.7,15.95-38.57,33.7-.11.4-.09.81.04,1.18-1.73,4.21-2.82,8.65-3.37,13.28-3.15-2.17-5.88-4.87-7.95-7.96-.61-.92-1.86-1.17-2.77-.55-.92.61-1.16,1.86-.55,2.77,3.72,5.57,9.14,9.94,15.42,12.57-.37.25-.67.62-.81,1.09-8.53,29.24-13.54,59.37-14.92,89.69-.68-.83-1.9-.98-2.76-.32-6.04,4.65-9.98,11.81-10.73,19.38-3.86,1.1-7.2,3.87-8.94,7.5-.53,1.1-.89,2.26-1.11,3.45-35.97,6.86-68.55,28.35-88.78,59.06-.33.5-.4,1.1-.25,1.64-1.51-.38-3.03-.73-4.56-1.02-9.46-11.32-24.03-18.34-38.79-18.51h-.02c-.42,0-.81.13-1.14.36-.62-.07-1.24-.12-1.87-.17,2.47-7.73,2.69-16.78.54-26.17-2.44-10.65-7.36-20.43-12.12-29.89-1.07-2.12-2.28-4.53-4.33-6.35-2.53-2.25-5.9-2.96-8.56-1.81-2.63,1.13-4.36,3.79-5.14,7.91-.41,2.15-.6,4.33-.59,6.51l-14.79-15.01c-1.45-1.47-3.26-3.31-5.7-4.15-2.61-.9-6.26-.34-7.88,2.47-1.27,2.21-.71,4.75-.08,6.71,1.24,3.86,2.94,7.6,5.02,11.1-3.25-2.46-6.33-5.1-9.35-7.7-1.46-1.26-3.12-2.68-5.25-3.43-2.66-.94-5.52-.46-7.29,1.23-2.73,2.62-2.43,6.95.8,11.9,2.36,3.61,4.85,7.15,7.46,10.61-2.03-1.33-4.11-2.74-6.15-4.13-1.61-1.09-3.43-2.33-5.65-2.85-2.77-.64-5.58.16-7.15,2.05-2.1,2.52-1.82,6.42.76,10.42,2.18,3.39,4.94,6.38,8.1,8.87-5.95-1.32-13.15-1.25-17.23,5.27-.2.32-.3.69-.3,1.06,0,2.14,3.28,5.62,3.73,6.02.24.22.54.37.86.45,10.4,2.52,20.57,5.18,30.58,9.89,5.25,9.81,13.49,18.1,23.27,23.41.3.16.63.24.95.24.07,0,.14-.02.21-.03,0,.97,0,1.93,0,2.9-1.02-.02-1.91.74-2.02,1.77-.12,1.1.67,2.08,1.77,2.2.1.01.21.02.32.03.02.88.04,1.75.07,2.63-.53.38-.86,1-.84,1.69,1.64,50.04,25.72,99.14,64.42,131.35.37.31.83.46,1.28.46.57,0,1.14-.25,1.54-.72.35-.41.49-.93.45-1.43,3.82,1.39,7.93,2.15,12.23,2.15h319.4c7.4,0,14.27-2.25,19.98-6.1-.71.95-1.43,1.89-2.16,2.83-.68.87-.52,2.13.35,2.81.37.28.8.42,1.23.42.6,0,1.19-.27,1.58-.77,29.51-37.91,47.27-85.2,50.02-133.17.04-.64-.23-1.26-.73-1.66-.49-.41-1.15-.55-1.77-.39-1.71.44-3.43.77-5.15.98,7.12-6.15,12.76-14.1,16.15-22.86,9.36-5.9,19.12-9.78,29.14-13.56.31-.12.58-.3.8-.55.39-.44,3.22-4.31,2.96-6.43Z"/>
    <g>
      <path class="cls-2" d="M340.87,150.03c-3.45,6.58-10.52,11.3-18.19,12.16-7.67.86-15.69-2.18-20.65-7.82-7.25,4.72-16.53,6.49-25.13,4.81-8.6-1.68-16.4-6.79-21.12-13.85"/>
      <path class="cls-2" d="M338.59,182.67c3.27-6.24,12.85-8.16,18.89-4.22,6.05,3.94,7.86,12.45,4.55,18.68-3.31,6.23-10.96,9.85-18.27,9.37"/>
      <path class="cls-2" d="M339.37,196.33c3.83-3.58,9.11-5.73,14.47-5.9"/>
      <path class="cls-2" d="M345.89,263.66c-30.43,12.38-67.16,9.56-95.12-7.3"/>
      <path class="cls-2" d="M343.98,209.83c2.41,16.93,1.91,34.23-1.5,51"/>
      <path class="cls-2" d="M341.1,174.13c-1.61-4.61-3.22-9.22-4.82-13.82"/>
      <path class="cls-2" d="M270.65,160.67c-9.25,31.69-14.34,64.47-15.13,97.36"/>
      <path class="cls-2" d="M358.64,178.29c6.35-16.95,3.8-37.45-6.46-51.97-10.26-14.52-27.86-22.54-44.62-20.32-16.76,2.22-32.06,14.59-36.91,32.25"/>
      <ellipse class="cls-4" cx="309.53" cy="175.06" rx="3.09" ry="3.23"/>
      <ellipse class="cls-4" cx="294.96" cy="175.06" rx="3.09" ry="3.23"/>
      <path class="cls-2" d="M289.27,199.62c4.75,2.65,10.42,3.24,15.83,2.66,5.4-.59,10.62-2.28,15.79-3.95,1.03,4.3.33,8.98-1.84,12.83-2.17,3.85-5.79,6.86-9.96,8.35-2.58.93-5.46,1.28-8.06.43-2.83-.92-5.07-3.17-6.58-5.73-1.51-2.56-2.39-5.44-3.25-8.29"/>
      <path class="cls-2" d="M347.24,255.96c6.9,6.31,10.67,15.89,9.92,25.21,2.97-2.49,7.86-2.23,10.55.57,2.68,2.8,2.74,7.7.12,10.56"/>
      <path class="cls-2" d="M252.27,251.06c-5.96,4.59-9.75,11.9-10.06,19.42-3.85.62-7.34,3.22-9.03,6.74s-1.55,7.86.37,11.26"/>
      <path class="cls-2" d="M373.55,294.6c17.11,18.71,29.73,41.51,36.48,65.94"/>
      <path class="cls-2" d="M124.6,486.8c-37.86-31.5-62.07-79.93-63.7-129.87"/>
      <path class="cls-2" d="M97.76,324.09c-2.07,8.2-7.18,15.59-14.13,20.42-6.94,4.83-15.65,7.05-24.06,6.14"/>
      <path class="cls-2" d="M97.88,322.98c15.24.17,30.22,7.9,39.18,20.23,2.17,2.99,4.05,6.93,2.43,10.25-2.1,4.29-8.21,4.25-12.82,3-2.64-.72-5.31-1.67-7.35-3.49-2.04-1.83-3.33-4.71-2.6-7.35,1.35-4.84,7.8-5.72,12.8-5.18,18.29,1.96,35.86,10.13,49.15,22.84"/>
      <path class="cls-2" d="M143.17,339.97c21.97-33.36,59.48-56,99.24-59.9"/>
      <g>
        <path class="cls-2" d="M59.35,307.61c-1.07-6.8,2.47-14.15,8.61-17.34"/>
        <path class="cls-2" d="M25.07,304.05c-6.78-2.79-17.98-6.4-23.07,1.74,0,.9,2.04,3.62,3.05,4.52,11.2,2.71,21.37,5.43,31.57,10.31,5.07,9.75,13.1,17.93,22.76,23.17"/>
        <path class="cls-2" d="M27.91,303.05c-6.85-2.56-12.83-7.39-16.79-13.54-1.57-2.44-2.76-5.83-.91-8.06,1.2-1.44,3.34-1.8,5.16-1.38,1.83.42,3.42,1.5,4.98,2.55,5.47,3.71,10.93,7.42,15.6,9.68-5.09-6-9.81-12.32-14.12-18.91-1.87-2.87-3.56-6.99-1.09-9.36,1.34-1.29,3.48-1.41,5.23-.79,1.75.62,3.2,1.86,4.61,3.06,5.91,5.07,11.83,10.15,18.96,13.99-5.16-5.58-9.09-12.29-11.41-19.53-.54-1.67-.97-3.58-.09-5.1,1.03-1.79,3.54-2.25,5.49-1.57,1.95.67,3.47,2.19,4.92,3.66,6.11,6.2,12.21,12.4,18.32,18.6"/>
        <path class="cls-2" d="M70.41,286.38c-3.4-6.42-4.55-14.01-3.19-21.15.49-2.58,1.55-5.4,3.97-6.44,2.14-.92,4.71-.08,6.44,1.47s2.82,3.68,3.87,5.75c4.77,9.49,9.59,19.09,11.96,29.44,2.37,10.35,2.08,21.69-3,31.02"/>
      </g>
      <g>
        <path class="cls-2" d="M511.93,319.44c.23-6.88-4.18-13.74-10.67-16.15"/>
        <path class="cls-2" d="M545.52,311.71c6.39-3.6,17.06-8.56,23.11-1.1.11.9-1.58,3.84-2.48,4.86-10.78,4.06-20.55,8-30.07,14.1-3.84,10.3-10.81,19.4-19.76,25.78"/>
        <path class="cls-2" d="M542.58,311.06c6.49-3.38,11.83-8.9,15.01-15.49,1.26-2.61,2.03-6.13-.09-8.11-1.37-1.28-3.53-1.38-5.29-.74-1.76.65-3.22,1.91-4.63,3.14-4.97,4.35-9.94,8.71-14.3,11.51,4.32-6.58,8.23-13.43,11.7-20.49,1.51-3.07,2.68-7.38-.06-9.43-1.49-1.11-3.63-.97-5.29-.14-1.66.83-2.95,2.23-4.2,3.61-5.25,5.76-10.5,11.52-17.1,16.21,4.44-6.17,7.51-13.31,8.94-20.78.33-1.72.52-3.67-.53-5.07-1.24-1.65-3.79-1.8-5.64-.89-1.86.91-3.18,2.6-4.44,4.24-5.3,6.9-10.6,13.8-15.9,20.7"/>
        <path class="cls-2" d="M498.35,299.72c2.59-6.79,2.8-14.46.58-21.38-.8-2.5-2.2-5.17-4.73-5.91-2.23-.65-4.68.5-6.22,2.25-1.54,1.75-2.35,3.99-3.14,6.19-3.58,10-7.18,20.12-8.27,30.68-1.08,10.56.59,21.78,6.77,30.42"/>
      </g>
      <path class="cls-2" d="M477.62,486.76c29.33-37.67,46.87-84.39,49.6-132.05-20.48,5.32-41.45-5.1-49.47-23.5-25.01,8.74-48.21,22.63-67.72,40.56"/>
    </g>
  </g>
</svg>