<?xml version="1.0" encoding="UTF-8"?>
<svg id="_レイヤー_14" data-name="レイヤー 14" xmlns="http://www.w3.org/2000/svg" viewBox="0 0 299.08 592.9">
  <defs>
    <style>
      .cls-1 {
        fill: #fff;
      }

      .cls-2 {
        fill: none;
        stroke: #035dc4;
        stroke-linecap: round;
        stroke-linejoin: round;
        stroke-width: 4px;
      }

      .cls-3 {
        fill: #035dc4;
      }
    </style>
  </defs>
  <path class="cls-1" d="M285.43,140.11c-12.82-27.26-34.57-48.39-60.06-58.52-.06-.05-.11-.11-.17-.16-2.18-1.8-4.71-3.09-7.44-3.56.68-8,.43-16.05-.78-23.99,2.02-1.44,3.48-3.22,4.27-5.21.37-.95.56-1.93.61-2.9.43-.39.85-.8,1.26-1.23.45-.48.81-1.05,1.05-1.66.25-.15.48-.35.65-.61,6.09-9.31,4.38-23.01-3.8-30.55-3.31-3.05-8.28-5.14-12.58-3.64-5.29-6.19-13.88-9.25-21.91-7.65-8.57,1.71-15.7,8.56-17.76,17.05-.07.31-.07.61,0,.9-.56,1.88-.84,3.82-.73,5.83-.53-.83-.94-1.73-1.16-2.69-.25-1.07-1.33-1.74-2.41-1.48-1.07.26-1.74,1.33-1.48,2.41.83,3.48,3.15,6.48,6.18,8.3-4.79,15.56-6.96,31.67-6.49,47.94-2.76,1.11-5.47,2.34-8.09,3.77-.41-.18-.89-.23-1.36-.09-20.2,5.91-39.01,18.24-52.98,34.7-3.82,4.5-7.28,9.33-10.31,14.35-4.31-2.09-8.7-4.03-13.15-5.86-.06-.06-.11-.12-.18-.17l-18.4-14.34c.69-5.73-.81-11.71-4.13-16.44-3.33-4.74-8.47-8.21-14.12-9.5-.62-.14-1.23.03-1.69.39-.19-.13-.39-.25-.59-.37,5.31-5.36,11.19-10.17,17.49-14.3.51-.33.84-.88.9-1.49.06-.61-.17-1.21-.61-1.63l-3.57-3.43c-.66-.63-1.65-.74-2.43-.26-7.78,4.76-14.73,10.67-20.67,17.59-.04.05-.08.11-.12.17-4.46-.75-9.11-.34-13.34,1.3-.58.22-1.02.71-1.2,1.3-.18.6-.06,1.24.3,1.74,1.14,1.56,2.45,2.97,3.9,4.23-6.37,6.35-12.4,13.14-17.93,20.23-.5.64-.56,1.53-.15,2.23l.9,1.55c.3.52.81.87,1.4.97.11.02.22.03.33.03.48,0,.95-.17,1.31-.49l1.41-1.22c-.12,1.34.24,2.72,1.02,3.78.72,5.04,4.89,9.47,9.97,10.27.56.09,1.12.13,1.68.13.97,0,1.94-.14,2.87-.38.25-.02.49-.05.72-.11.71.96,1.49,1.86,2.39,2.67,1.15,1.04,2.56,2.26,4.06,3.28.01.1.02.2.05.29,4.31,15.27,8.76,31.07,16.52,45.39,6.14,11.34,17.11,26.43,34.47,33.96,4.06,1.76,8.3,2.95,12.56,3.59-1.57,28.52-.17,57.24,4.16,85.47,0,9.49,1.47,18.85,4.42,27.87,6.09,76.05,19.11,153.17,38.81,229.56-11.3,7.75-21.93,16.57-31.6,26.26-.52.52-.71,1.28-.5,1.98.21.7.79,1.24,1.5,1.39,12.31,2.6,24.77,3.9,37.26,3.9,7.6,0,15.21-.48,22.8-1.45,2.52-.32,5.37-.83,7.36-2.9,2.29-2.38,2.47-5.83,2.59-8.11l1.23-23.35c.02-.44-.11-.86-.33-1.2,1.53-13.78,2.93-27.59,4.19-41.44,1.02,10.7,2.14,21.48,3.32,32.15-.23.34-.36.76-.33,1.2l1.23,23.35c.12,2.28.3,5.73,2.59,8.11,2,2.07,4.85,2.59,7.36,2.9,7.59.96,15.2,1.45,22.8,1.45,12.49,0,24.96-1.3,37.26-3.9.72-.15,1.29-.68,1.5-1.39.21-.7.02-1.46-.5-1.98-9.66-9.68-20.27-18.48-31.55-26.22,21.54-79.33,35.13-159.47,40.39-238.23,15.85-28.35,25.78-56.48,29.48-83.63,4.34-31.8.2-62.28-11.97-88.15Z"/>
  <g>
    <path class="cls-2" d="M250.24,156.86c15.85,46.3,21.19,96.17,15.51,144.77"/>
    <path class="cls-2" d="M94.14,213.31c-1.92,30.42-.44,61.05,4.39,91.15"/>
    <path class="cls-2" d="M125.21,157.02c-.88-6.17-5.34-11.69-11.17-13.86-5.84-2.17-12.82-.89-17.51,3.21-1.86,1.63-3.45,3.88-3.32,6.35s2.66,4.82,4.99,4c2.5-.88,2.89-4.26,2.37-6.86-1.59-7.97-8-14.78-15.85-16.87"/>
    <path class="cls-2" d="M33.28,128.96c7.65-5.65,15.3-11.3,22.95-16.95,6.39,4.98,12.78,9.96,19.17,14.94"/>
    <path class="cls-2" d="M37.4,87.28c-6.18-4.13-14.39-5.04-21.32-2.36,3.04,4.17,7.49,7.3,12.44,8.75-1.97,6.22.31,13.55,5.46,17.54"/>
    <path class="cls-2" d="M30.33,82.9c5.78-6.73,12.63-12.56,20.2-17.19,1.19,1.14,2.38,2.29,3.57,3.43-6.82,4.46-13.13,9.69-18.8,15.55"/>
    <path class="cls-2" d="M20.82,90.69c-6.72,6.61-13.01,13.67-18.8,21.1.3.52.6,1.03.9,1.55,7.32-6.38,14.65-12.75,21.97-19.13"/>
    <path class="cls-2" d="M17.42,103.6c1.29,1.81,3.49,2.93,5.71,2.9s4.39-1.2,5.64-3.04"/>
    <path class="cls-2" d="M10.67,109.59c1.97,3.03,5.53,4.95,9.14,4.93,3.61-.02,7.15-1.97,9.09-5.01"/>
    <path class="cls-2" d="M8.53,115.74c-.06,4.73,3.72,9.22,8.4,9.96,4.68.73,9.66-2.38,11.04-6.91"/>
    <path class="cls-2" d="M39.54,87.04c5.18,1.19,9.88,4.35,12.93,8.7s4.42,9.85,3.77,15.12"/>
    <path class="cls-2" d="M30.33,133c4.34,15.39,8.74,30.92,16.35,44.98,7.62,14.06,18.84,26.71,33.51,33.08,14.67,6.36,33.05,5.41,45.28-4.88"/>
    <path class="cls-2" d="M100.98,311.86c54.57,4.3,109.76,3.08,163.98-3.62"/>
    <path class="cls-2" d="M171.5,29.99c-5.13,16.14-7.43,33.17-6.77,50.09"/>
    <path class="cls-2" d="M212.3,40.9c1.71-1.54,4.64-1.15,6.18.55s1.77,4.34.93,6.48c-.84,2.14-2.61,3.81-4.59,4.97,1.54,9.31,1.76,18.84.64,28.21"/>
    <path class="cls-2" d="M182.79,47c1.65,1.83,4.04,2.98,6.5,3.14,2.46.16,4.97-.69,6.84-2.3"/>
    <path class="cls-2" d="M164.95,21.98c1.04,4.39,4.97,7.94,9.43,8.54,4.47.6,9.19-1.79,11.35-5.74.92-1.68,1.18-4.2-.48-5.16-1.82-1.06-4.09.96-4.44,3.04-.61,3.64,2.29,7.16,5.75,8.46,3.46,1.3,7.3.89,10.95.3,2.58-.42,5.31-1,7.19-2.81s2.41-5.27.39-6.94c-2.38-1.96-6.38.33-6.84,3.38s1.58,5.98,4.05,7.82c3.39,2.54,7.79,3.69,11.99,3.14"/>
    <path class="cls-2" d="M170.74,17.94c1.86-7.69,8.45-14.02,16.2-15.56,7.75-1.54,16.27,1.78,20.93,8.17,3.71-2.24,8.63-.31,11.82,2.63,7.52,6.92,9.07,19.43,3.48,27.98"/>
    <path class="cls-2" d="M162.11,81.53c7.14,7.86,16.29,13.88,26.33,17.34"/>
    <path class="cls-2" d="M193.59,98.83c8.58-4.28,16.17-10.54,22.03-18.13"/>
    <path class="cls-2" d="M159.28,86.09c6.9,10.94,12.9,22.46,17.91,34.39,4.34-7.29,8.69-14.57,14.73-20.51,2.43,6.84,5.37,13.51,8.78,19.92,3.81-11.78,9.07-23.09,15.62-33.6"/>
    <path class="cls-2" d="M221.13,82.11c27.5,9.69,49.91,32.07,62.51,58.85,12.6,26.78,15.81,57.6,11.8,87.03-4.02,29.43-14.99,57.55-29.46,83.32"/>
    <path class="cls-2" d="M153.81,84.28c-20.13,5.89-38.38,18-52.02,34.07-3.89,4.58-7.4,9.48-10.47,14.65"/>
    <g>
      <path class="cls-2" d="M100.98,308.24c5.34,84.67,19.21,168.93,40.43,251.11,11.81,1.06,23.78.75,35.5-.9"/>
      <path class="cls-2" d="M190.46,327.22c-.07,77.04-4.42,154.08-13.02,230.64"/>
      <path class="cls-2" d="M143.1,559.24c-12.2,8.11-23.58,17.44-33.93,27.81,19.48,4.11,39.65,4.93,59.4,2.42,2.22-.28,4.62-.69,6.18-2.31,1.69-1.75,1.91-4.4,2.03-6.83.41-7.78.82-15.56,1.23-23.35"/>
    </g>
    <path class="cls-2" d="M265.98,311.31c-5.34,80.51-19.23,160.64-40.49,238.78-11.83,1.01-23.82.72-35.55-.86"/>
    <path class="cls-2" d="M185.5,510.67c1.19,12.64,2.49,25.27,3.91,37.89"/>
    <path class="cls-2" d="M223.75,549.95c12.2,8.11,23.58,17.44,33.93,27.81-19.48,4.11-39.65,4.93-59.4,2.42-2.22-.28-4.62-.69-6.18-2.31-1.69-1.75-1.91-4.4-2.03-6.83-.41-7.78-.82-15.56-1.23-23.35"/>
    <g>
      <ellipse class="cls-3" cx="184.76" cy="38.19" rx="1.79" ry="2.02"/>
      <ellipse class="cls-3" cx="193.62" cy="38.19" rx="1.79" ry="2.02"/>
    </g>
  </g>
</svg>